<svg xmlns="http://www.w3.org/2000/svg" width="1600" height="520" viewBox="0 0 1600 520" role="img" aria-label="WeRead to Notion banner">
  <defs>
    <linearGradient id="banner-bg" x1="80" y1="0" x2="1510" y2="520" gradientUnits="userSpaceOnUse">
      <stop stop-color="#F8F8FA"/>
      <stop offset=".52" stop-color="#F3F7F4"/>
      <stop offset="1" stop-color="#EEF4FF"/>
    </linearGradient>
    <linearGradient id="banner-green" x1="0" y1="0" x2="1" y2="1">
      <stop stop-color="#63E677"/>
      <stop offset="1" stop-color="#28BC4D"/>
    </linearGradient>
    <filter id="banner-shadow" x="-30%" y="-30%" width="160%" height="180%">
      <feDropShadow dx="0" dy="16" stdDeviation="24" flood-color="#1D1D1F" flood-opacity=".12"/>
    </filter>
    <pattern id="banner-grid" width="36" height="36" patternUnits="userSpaceOnUse">
      <circle cx="2" cy="2" r="1.5" fill="#D7D7DC"/>
    </pattern>
  </defs>
  <rect width="1600" height="520" rx="36" fill="url(#banner-bg)"/>
  <rect width="1600" height="520" rx="36" fill="url(#banner-grid)" opacity=".34"/>
  <circle cx="1412" cy="76" r="210" fill="#D8E9FF" opacity=".55"/>
  <circle cx="1328" cy="436" r="230" fill="#DDF6E2" opacity=".7"/>

  <g transform="translate(112 102)">
    <rect width="84" height="84" rx="24" fill="#FFFFFF" stroke="#E2E2E7"/>
    <path d="M19 25c0-5.52 4.48-10 10-10h15c4.42 0 8 3.58 8 8v42c-7.7-4.57-15.7-6.86-24-6.86-4.97 0-9-4.03-9-9V25Z" fill="url(#banner-green)"/>
    <path d="M65 25c0-5.52-4.48-10-10-10h-3v50c5.35-4.57 10.68-6.86 16-6.86V28c0-1.66-1.34-3-3-3Z" fill="#1D1D1F"/>
  </g>
  <text x="226" y="157" fill="#1D1D1F" font-family="-apple-system,BlinkMacSystemFont,'SF Pro Display','Helvetica Neue','Noto Sans SC',sans-serif" font-size="28" font-weight="650" letter-spacing="-.5">WECHAT READING × NOTION</text>
  <text x="112" y="265" fill="#1D1D1F" font-family="-apple-system,BlinkMacSystemFont,'SF Pro Display','Helvetica Neue','Noto Sans SC',sans-serif" font-size="76" font-weight="700" letter-spacing="-2.5">WeRead to Notion</text>
  <text x="116" y="323" fill="#6E6E73" font-family="-apple-system,BlinkMacSystemFont,'SF Pro Text','Helvetica Neue','Noto Sans SC',sans-serif" font-size="30" font-weight="450">把划线、想法、进度与阅读时间，沉淀成你的第二大脑</text>
  <g transform="translate(116 370)" font-family="-apple-system,BlinkMacSystemFont,'SF Pro Text','Helvetica Neue','Noto Sans SC',sans-serif" font-size="20" font-weight="550">
    <rect width="172" height="48" rx="24" fill="#1D1D1F"/>
    <circle cx="26" cy="24" r="7" fill="#34C759"/>
    <text x="45" y="31" fill="#FFFFFF">自动同步</text>
    <rect x="188" width="178" height="48" rx="24" fill="#FFFFFF" stroke="#E1E1E6"/>
    <circle cx="214" cy="24" r="7" fill="#0A84FF"/>
    <text x="233" y="31" fill="#1D1D1F">阅读热力图</text>
    <rect x="382" width="176" height="48" rx="24" fill="#FFFFFF" stroke="#E1E1E6"/>
    <circle cx="408" cy="24" r="7" fill="#BF5AF2"/>
    <text x="427" y="31" fill="#1D1D1F">增量更新</text>
  </g>

  <g transform="translate(1105 88) rotate(-4 190 170)" filter="url(#banner-shadow)">
    <rect width="382" height="342" rx="30" fill="#FFFFFF" stroke="#E4E4E9"/>
    <circle cx="34" cy="34" r="6" fill="#FF5F57"/>
    <circle cx="54" cy="34" r="6" fill="#FEBB2E"/>
    <circle cx="74" cy="34" r="6" fill="#28C840"/>
    <text x="302" y="42" fill="#86868B" font-family="-apple-system,BlinkMacSystemFont,'SF Pro Text',sans-serif" font-size="15" font-weight="600">2026</text>
    <text x="30" y="91" fill="#1D1D1F" font-family="-apple-system,BlinkMacSystemFont,'SF Pro Display','Noto Sans SC',sans-serif" font-size="25" font-weight="650">阅读热力图</text>
    <text x="30" y="118" fill="#86868B" font-family="-apple-system,BlinkMacSystemFont,'SF Pro Text','Noto Sans SC',sans-serif" font-size="14">让每一天的阅读都有迹可循</text>
    <g transform="translate(30 148)">
      <g fill="#E5E5EA">
        <rect width="14" height="14" rx="4"/><rect x="22" width="14" height="14" rx="4"/><rect x="44" width="14" height="14" rx="4"/><rect x="66" width="14" height="14" rx="4"/><rect x="88" width="14" height="14" rx="4"/><rect x="110" width="14" height="14" rx="4"/><rect x="132" width="14" height="14" rx="4"/><rect x="154" width="14" height="14" rx="4"/><rect x="176" width="14" height="14" rx="4"/><rect x="198" width="14" height="14" rx="4"/><rect x="220" width="14" height="14" rx="4"/><rect x="242" width="14" height="14" rx="4"/><rect x="264" width="14" height="14" rx="4"/><rect x="286" width="14" height="14" rx="4"/>
        <rect y="26" width="14" height="14" rx="4"/><rect x="22" y="26" width="14" height="14" rx="4"/><rect x="44" y="26" width="14" height="14" rx="4"/><rect x="66" y="26" width="14" height="14" rx="4"/><rect x="88" y="26" width="14" height="14" rx="4"/><rect x="110" y="26" width="14" height="14" rx="4"/><rect x="132" y="26" width="14" height="14" rx="4"/><rect x="154" y="26" width="14" height="14" rx="4"/><rect x="176" y="26" width="14" height="14" rx="4"/><rect x="198" y="26" width="14" height="14" rx="4"/><rect x="220" y="26" width="14" height="14" rx="4"/><rect x="242" y="26" width="14" height="14" rx="4"/><rect x="264" y="26" width="14" height="14" rx="4"/><rect x="286" y="26" width="14" height="14" rx="4"/>
        <rect y="52" width="14" height="14" rx="4"/><rect x="22" y="52" width="14" height="14" rx="4"/><rect x="44" y="52" width="14" height="14" rx="4"/><rect x="66" y="52" width="14" height="14" rx="4"/><rect x="88" y="52" width="14" height="14" rx="4"/><rect x="110" y="52" width="14" height="14" rx="4"/><rect x="132" y="52" width="14" height="14" rx="4"/><rect x="154" y="52" width="14" height="14" rx="4"/><rect x="176" y="52" width="14" height="14" rx="4"/><rect x="198" y="52" width="14" height="14" rx="4"/><rect x="220" y="52" width="14" height="14" rx="4"/><rect x="242" y="52" width="14" height="14" rx="4"/><rect x="264" y="52" width="14" height="14" rx="4"/><rect x="286" y="52" width="14" height="14" rx="4"/>
        <rect y="78" width="14" height="14" rx="4"/><rect x="22" y="78" width="14" height="14" rx="4"/><rect x="44" y="78" width="14" height="14" rx="4"/><rect x="66" y="78" width="14" height="14" rx="4"/><rect x="88" y="78" width="14" height="14" rx="4"/><rect x="110" y="78" width="14" height="14" rx="4"/><rect x="132" y="78" width="14" height="14" rx="4"/><rect x="154" y="78" width="14" height="14" rx="4"/><rect x="176" y="78" width="14" height="14" rx="4"/><rect x="198" y="78" width="14" height="14" rx="4"/><rect x="220" y="78" width="14" height="14" rx="4"/><rect x="242" y="78" width="14" height="14" rx="4"/><rect x="264" y="78" width="14" height="14" rx="4"/><rect x="286" y="78" width="14" height="14" rx="4"/>
      </g>
      <g fill="#34C759"><rect x="22" width="14" height="14" rx="4"/><rect x="88" y="26" width="14" height="14" rx="4"/><rect x="154" y="52" width="14" height="14" rx="4"/><rect x="220" y="26" width="14" height="14" rx="4"/><rect x="286" y="78" width="14" height="14" rx="4"/></g>
      <g fill="#7EDC8F"><rect x="44" y="52" width="14" height="14" rx="4"/><rect x="110" y="78" width="14" height="14" rx="4"/><rect x="176" width="14" height="14" rx="4"/><rect x="242" y="52" width="14" height="14" rx="4"/></g>
    </g>
  </g>
</svg>
