<svg xmlns="http://www.w3.org/2000/svg" width="256" height="256" viewBox="0 0 256 256" role="img" aria-label="WeRead to Notion icon" shape-rendering="geometricPrecision" text-rendering="geometricPrecision">
  <defs>
    <linearGradient id="icon-bg" x1="28" y1="20" x2="224" y2="238" gradientUnits="userSpaceOnUse">
      <stop stop-color="#FFFFFF"/>
      <stop offset="1" stop-color="#F1F1F6"/>
    </linearGradient>
    <linearGradient id="page-green" x1="66" y1="58" x2="129" y2="188" gradientUnits="userSpaceOnUse">
      <stop stop-color="#5FE174"/>
      <stop offset="1" stop-color="#25B84A"/>
    </linearGradient>
    <filter id="icon-shadow" x="-30%" y="-30%" width="160%" height="170%">
      <feDropShadow dx="0" dy="12" stdDeviation="14" flood-color="#000000" flood-opacity="0.14"/>
    </filter>
  </defs>
  <rect x="16" y="16" width="224" height="224" rx="56" fill="url(#icon-bg)" stroke="#E3E3E8"/>
  <g filter="url(#icon-shadow)">
    <path d="M54 70c0-9.94 8.06-18 18-18h43c8.28 0 15 6.72 15 15v123c-13.67-8.89-28.17-13.33-43.5-13.33H72c-9.94 0-18-8.06-18-18V70Z" fill="url(#page-green)"/>
    <path d="M202 70c0-9.94-8.06-18-18-18h-43c-8.28 0-15 6.72-15 15v123c13.67-8.89 28.17-13.33 43.5-13.33H184c9.94 0 18-8.06 18-18V70Z" fill="#FFFFFF"/>
    <path d="M126 68v122" stroke="#D7D7DC" stroke-width="4" stroke-linecap="round"/>
    <path d="M75 83h32M75 101h32M75 119h23" stroke="#FFFFFF" stroke-width="7" stroke-linecap="round" opacity=".88"/>
    <path d="M4.459 4.208c.746.606 1.026.56 2.428.466l13.215-.793c.28 0 .047-.28-.046-.326L17.86 1.968c-.42-.326-.981-.7-2.055-.607L3.01 2.295c-.466.046-.56.28-.374.466zm.793 3.08v13.904c0 .747.373 1.027 1.214.98l14.523-.84c.841-.046.935-.56.935-1.167V6.354c0-.606-.233-.933-.748-.887l-15.177.887c-.56.047-.747.327-.747.933zm14.337.745c.093.42 0 .84-.42.888l-.7.14v10.264c-.608.327-1.168.514-1.635.514-.748 0-.935-.234-1.495-.933l-4.577-7.186v6.952L12.21 19s0 .84-1.168.84l-3.222.186c-.093-.186 0-.653.327-.746l.84-.233V9.854L7.822 9.76c-.094-.42.14-1.026.793-1.073l3.456-.233 4.764 7.279v-6.44l-1.215-.139c-.093-.514.28-.887.747-.933zM1.936 1.035l13.31-.98c1.634-.14 2.055-.047 3.082.7l4.249 2.986c.7.513.934.653.934 1.213v16.378c0 1.026-.373 1.634-1.68 1.726l-15.458.934c-.98.047-1.448-.093-1.962-.747l-3.129-4.06c-.56-.747-.793-1.306-.793-1.96V2.667c0-.839.374-1.54 1.447-1.632z" fill="#1D1D1F" transform="translate(147 80) scale(1.333333)"/>
    <rect x="147" y="125" width="34" height="7" rx="3.5" fill="#D1D1D6"/>
    <rect x="147" y="141" width="27" height="7" rx="3.5" fill="#D1D1D6"/>
  </g>
  <circle cx="202" cy="55" r="18" fill="#0A84FF" stroke="#FFFFFF" stroke-width="5"/>
  <path d="m195 55 5 5 10-11" fill="none" stroke="#FFFFFF" stroke-width="4" stroke-linecap="round" stroke-linejoin="round"/>
</svg>
