<?xml version="1.0" encoding="UTF-8"?>
<svg xmlns="http://www.w3.org/2000/svg" width="885" height="274" viewBox="0 0 885 274" role="img" aria-labelledby="title description" shape-rendering="geometricPrecision" text-rendering="geometricPrecision">
<title id="title">微信读书 · 阅读热力图</title>
<desc id="description">2026 年阅读时长热力图，共 9 个阅读日，累计 3 小时 45 分钟</desc>
<rect width="885" height="274" rx="20" fill="#FFFFFF"/>
<g fill="#1D1D1F" font-family="-apple-system,BlinkMacSystemFont,'SF Pro Display','SF Pro Text','Helvetica Neue','Noto Sans SC',sans-serif">
<text x="30" y="40" font-size="20" font-weight="600" letter-spacing="-0.35">微信读书 · 阅读热力图</text>
<text x="30" y="62" font-size="12" fill="#6E6E73">9 个阅读日 · 累计 3 小时 45 分钟</text>
<rect x="789" y="25" width="58" height="26" rx="13" fill="#F5F5F7"/>
<text x="818" y="43" text-anchor="middle" font-size="12" font-weight="600" fill="#6E6E73">2026</text>
<g font-size="10" font-weight="500" fill="#86868B"><text x="62" y="80">1月</text><text x="137" y="80">2月</text><text x="197" y="80">3月</text><text x="257" y="80">4月</text><text x="317" y="80">5月</text><text x="392" y="80">6月</text><text x="452" y="80">7月</text><text x="512" y="80">8月</text><text x="587" y="80">9月</text><text x="647" y="80">10月</text><text x="722" y="80">11月</text><text x="782" y="80">12月</text></g>
<g font-size="10" font-weight="500" fill="#86868B"><text x="32" y="125">一</text><text x="32" y="163">三</text><text x="32" y="201">五</text></g>
</g>
<g><rect x="62" y="172" width="12" height="12" rx="3" fill="#E5E5EA"><title>2026-01-01 · 0 分钟</title></rect><rect x="62" y="191" width="12" height="12" rx="3" fill="#E5E5EA"><title>2026-01-02 · 0 分钟</title></rect><rect x="62" y="210" width="12" height="12" rx="3" fill="#E5E5EA"><title>2026-01-03 · 0 分钟</title></rect><rect x="77" y="96" width="12" height="12" rx="3" fill="#E5E5EA"><title>2026-01-04 · 0 分钟</title></rect><rect x="77" y="115" width="12" height="12" rx="3" fill="#E5E5EA"><title>2026-01-05 · 0 分钟</title></rect><rect x="77" y="134" width="12" height="12" rx="3" fill="#E5E5EA"><title>2026-01-06 · 0 分钟</title></rect><rect x="77" y="153" width="12" height="12" rx="3" fill="#D1F2D8"><title>2026-01-07 · 2 分钟</title></rect><rect x="77" y="172" width="12" height="12" rx="3" fill="#E5E5EA"><title>2026-01-08 · 0 分钟</title></rect><rect x="77" y="191" width="12" height="12" rx="3" fill="#E5E5EA"><title>2026-01-09 · 0 分钟</title></rect><rect x="77" y="210" width="12" height="12" rx="3" fill="#E5E5EA"><title>2026-01-10 · 0 分钟</title></rect><rect x="92" y="96" width="12" height="12" rx="3" fill="#E5E5EA"><title>2026-01-11 · 0 分钟</title></rect><rect x="92" y="115" width="12" height="12" rx="3" fill="#E5E5EA"><title>2026-01-12 · 0 分钟</title></rect><rect x="92" y="134" width="12" height="12" rx="3" fill="#E5E5EA"><title>2026-01-13 · 0 分钟</title></rect><rect x="92" y="153" width="12" height="12" rx="3" fill="#E5E5EA"><title>2026-01-14 · 0 分钟</title></rect><rect x="92" y="172" width="12" height="12" rx="3" fill="#E5E5EA"><title>2026-01-15 · 0 分钟</title></rect><rect x="92" y="191" width="12" height="12" rx="3" fill="#E5E5EA"><title>2026-01-16 · 0 分钟</title></rect><rect x="92" y="210" width="12" height="12" rx="3" fill="#E5E5EA"><title>2026-01-17 · 0 分钟</title></rect><rect x="107" y="96" width="12" height="12" rx="3" fill="#E5E5EA"><title>2026-01-18 · 0 分钟</title></rect><rect x="107" y="115" width="12" height="12" rx="3" fill="#E5E5EA"><title>2026-01-19 · 0 分钟</title></rect><rect x="107" y="134" width="12" height="12" rx="3" fill="#E5E5EA"><title>2026-01-20 · 0 分钟</title></rect><rect x="107" y="153" width="12" height="12" rx="3" fill="#E5E5EA"><title>2026-01-21 · 0 分钟</title></rect><rect x="107" y="172" width="12" height="12" rx="3" fill="#E5E5EA"><title>2026-01-22 · 0 分钟</title></rect><rect x="107" y="191" width="12" height="12" rx="3" fill="#E5E5EA"><title>2026-01-23 · 0 分钟</title></rect><rect x="107" y="210" width="12" height="12" rx="3" fill="#7EDC8F"><title>2026-01-24 · 27 分钟</title></rect><rect x="122" y="96" width="12" height="12" rx="3" fill="#E5E5EA"><title>2026-01-25 · 0 分钟</title></rect><rect x="122" y="115" width="12" height="12" rx="3" fill="#E5E5EA"><title>2026-01-26 · 0 分钟</title></rect><rect x="122" y="134" width="12" height="12" rx="3" fill="#E5E5EA"><title>2026-01-27 · 0 分钟</title></rect><rect x="122" y="153" width="12" height="12" rx="3" fill="#E5E5EA"><title>2026-01-28 · 0 分钟</title></rect><rect x="122" y="172" width="12" height="12" rx="3" fill="#E5E5EA"><title>2026-01-29 · 0 分钟</title></rect><rect x="122" y="191" width="12" height="12" rx="3" fill="#E5E5EA"><title>2026-01-30 · 0 分钟</title></rect><rect x="122" y="210" width="12" height="12" rx="3" fill="#E5E5EA"><title>2026-01-31 · 0 分钟</title></rect><rect x="137" y="96" width="12" height="12" rx="3" fill="#E5E5EA"><title>2026-02-01 · 0 分钟</title></rect><rect x="137" y="115" width="12" height="12" rx="3" fill="#E5E5EA"><title>2026-02-02 · 0 分钟</title></rect><rect x="137" y="134" width="12" height="12" rx="3" fill="#E5E5EA"><title>2026-02-03 · 0 分钟</title></rect><rect x="137" y="153" width="12" height="12" rx="3" fill="#E5E5EA"><title>2026-02-04 · 0 分钟</title></rect><rect x="137" y="172" width="12" height="12" rx="3" fill="#E5E5EA"><title>2026-02-05 · 0 分钟</title></rect><rect x="137" y="191" width="12" height="12" rx="3" fill="#E5E5EA"><title>2026-02-06 · 0 分钟</title></rect><rect x="137" y="210" width="12" height="12" rx="3" fill="#E5E5EA"><title>2026-02-07 · 0 分钟</title></rect><rect x="152" y="96" width="12" height="12" rx="3" fill="#E5E5EA"><title>2026-02-08 · 0 分钟</title></rect><rect x="152" y="115" width="12" height="12" rx="3" fill="#E5E5EA"><title>2026-02-09 · 0 分钟</title></rect><rect x="152" y="134" width="12" height="12" rx="3" fill="#E5E5EA"><title>2026-02-10 · 0 分钟</title></rect><rect x="152" y="153" width="12" height="12" rx="3" fill="#D1F2D8"><title>2026-02-11 · 0 分钟</title></rect><rect x="152" y="172" width="12" height="12" rx="3" fill="#E5E5EA"><title>2026-02-12 · 0 分钟</title></rect><rect x="152" y="191" width="12" height="12" rx="3" fill="#E5E5EA"><title>2026-02-13 · 0 分钟</title></rect><rect x="152" y="210" width="12" height="12" rx="3" fill="#E5E5EA"><title>2026-02-14 · 0 分钟</title></rect><rect x="167" y="96" width="12" height="12" rx="3" fill="#E5E5EA"><title>2026-02-15 · 0 分钟</title></rect><rect x="167" y="115" width="12" height="12" rx="3" fill="#E5E5EA"><title>2026-02-16 · 0 分钟</title></rect><rect x="167" y="134" width="12" height="12" rx="3" fill="#E5E5EA"><title>2026-02-17 · 0 分钟</title></rect><rect x="167" y="153" width="12" height="12" rx="3" fill="#E5E5EA"><title>2026-02-18 · 0 分钟</title></rect><rect x="167" y="172" width="12" height="12" rx="3" fill="#E5E5EA"><title>2026-02-19 · 0 分钟</title></rect><rect x="167" y="191" width="12" height="12" rx="3" fill="#E5E5EA"><title>2026-02-20 · 0 分钟</title></rect><rect x="167" y="210" width="12" height="12" rx="3" fill="#E5E5EA"><title>2026-02-21 · 0 分钟</title></rect><rect x="182" y="96" width="12" height="12" rx="3" fill="#E5E5EA"><title>2026-02-22 · 0 分钟</title></rect><rect x="182" y="115" width="12" height="12" rx="3" fill="#E5E5EA"><title>2026-02-23 · 0 分钟</title></rect><rect x="182" y="134" width="12" height="12" rx="3" fill="#E5E5EA"><title>2026-02-24 · 0 分钟</title></rect><rect x="182" y="153" width="12" height="12" rx="3" fill="#E5E5EA"><title>2026-02-25 · 0 分钟</title></rect><rect x="182" y="172" width="12" height="12" rx="3" fill="#E5E5EA"><title>2026-02-26 · 0 分钟</title></rect><rect x="182" y="191" width="12" height="12" rx="3" fill="#E5E5EA"><title>2026-02-27 · 0 分钟</title></rect><rect x="182" y="210" width="12" height="12" rx="3" fill="#E5E5EA"><title>2026-02-28 · 0 分钟</title></rect><rect x="197" y="96" width="12" height="12" rx="3" fill="#E5E5EA"><title>2026-03-01 · 0 分钟</title></rect><rect x="197" y="115" width="12" height="12" rx="3" fill="#E5E5EA"><title>2026-03-02 · 0 分钟</title></rect><rect x="197" y="134" width="12" height="12" rx="3" fill="#E5E5EA"><title>2026-03-03 · 0 分钟</title></rect><rect x="197" y="153" width="12" height="12" rx="3" fill="#E5E5EA"><title>2026-03-04 · 0 分钟</title></rect><rect x="197" y="172" width="12" height="12" rx="3" fill="#E5E5EA"><title>2026-03-05 · 0 分钟</title></rect><rect x="197" y="191" width="12" height="12" rx="3" fill="#E5E5EA"><title>2026-03-06 · 0 分钟</title></rect><rect x="197" y="210" width="12" height="12" rx="3" fill="#E5E5EA"><title>2026-03-07 · 0 分钟</title></rect><rect x="212" y="96" width="12" height="12" rx="3" fill="#E5E5EA"><title>2026-03-08 · 0 分钟</title></rect><rect x="212" y="115" width="12" height="12" rx="3" fill="#E5E5EA"><title>2026-03-09 · 0 分钟</title></rect><rect x="212" y="134" width="12" height="12" rx="3" fill="#E5E5EA"><title>2026-03-10 · 0 分钟</title></rect><rect x="212" y="153" width="12" height="12" rx="3" fill="#E5E5EA"><title>2026-03-11 · 0 分钟</title></rect><rect x="212" y="172" width="12" height="12" rx="3" fill="#E5E5EA"><title>2026-03-12 · 0 分钟</title></rect><rect x="212" y="191" width="12" height="12" rx="3" fill="#E5E5EA"><title>2026-03-13 · 0 分钟</title></rect><rect x="212" y="210" width="12" height="12" rx="3" fill="#E5E5EA"><title>2026-03-14 · 0 分钟</title></rect><rect x="227" y="96" width="12" height="12" rx="3" fill="#E5E5EA"><title>2026-03-15 · 0 分钟</title></rect><rect x="227" y="115" width="12" height="12" rx="3" fill="#E5E5EA"><title>2026-03-16 · 0 分钟</title></rect><rect x="227" y="134" width="12" height="12" rx="3" fill="#E5E5EA"><title>2026-03-17 · 0 分钟</title></rect><rect x="227" y="153" width="12" height="12" rx="3" fill="#E5E5EA"><title>2026-03-18 · 0 分钟</title></rect><rect x="227" y="172" width="12" height="12" rx="3" fill="#E5E5EA"><title>2026-03-19 · 0 分钟</title></rect><rect x="227" y="191" width="12" height="12" rx="3" fill="#E5E5EA"><title>2026-03-20 · 0 分钟</title></rect><rect x="227" y="210" width="12" height="12" rx="3" fill="#E5E5EA"><title>2026-03-21 · 0 分钟</title></rect><rect x="242" y="96" width="12" height="12" rx="3" fill="#E5E5EA"><title>2026-03-22 · 0 分钟</title></rect><rect x="242" y="115" width="12" height="12" rx="3" fill="#E5E5EA"><title>2026-03-23 · 0 分钟</title></rect><rect x="242" y="134" width="12" height="12" rx="3" fill="#E5E5EA"><title>2026-03-24 · 0 分钟</title></rect><rect x="242" y="153" width="12" height="12" rx="3" fill="#D1F2D8"><title>2026-03-25 · 1 分钟</title></rect><rect x="242" y="172" width="12" height="12" rx="3" fill="#E5E5EA"><title>2026-03-26 · 0 分钟</title></rect><rect x="242" y="191" width="12" height="12" rx="3" fill="#E5E5EA"><title>2026-03-27 · 0 分钟</title></rect><rect x="242" y="210" width="12" height="12" rx="3" fill="#E5E5EA"><title>2026-03-28 · 0 分钟</title></rect><rect x="257" y="96" width="12" height="12" rx="3" fill="#E5E5EA"><title>2026-03-29 · 0 分钟</title></rect><rect x="257" y="115" width="12" height="12" rx="3" fill="#E5E5EA"><title>2026-03-30 · 0 分钟</title></rect><rect x="257" y="134" width="12" height="12" rx="3" fill="#E5E5EA"><title>2026-03-31 · 0 分钟</title></rect><rect x="257" y="153" width="12" height="12" rx="3" fill="#E5E5EA"><title>2026-04-01 · 0 分钟</title></rect><rect x="257" y="172" width="12" height="12" rx="3" fill="#E5E5EA"><title>2026-04-02 · 0 分钟</title></rect><rect x="257" y="191" width="12" height="12" rx="3" fill="#E5E5EA"><title>2026-04-03 · 0 分钟</title></rect><rect x="257" y="210" width="12" height="12" rx="3" fill="#E5E5EA"><title>2026-04-04 · 0 分钟</title></rect><rect x="272" y="96" width="12" height="12" rx="3" fill="#E5E5EA"><title>2026-04-05 · 0 分钟</title></rect><rect x="272" y="115" width="12" height="12" rx="3" fill="#E5E5EA"><title>2026-04-06 · 0 分钟</title></rect><rect x="272" y="134" width="12" height="12" rx="3" fill="#E5E5EA"><title>2026-04-07 · 0 分钟</title></rect><rect x="272" y="153" width="12" height="12" rx="3" fill="#E5E5EA"><title>2026-04-08 · 0 分钟</title></rect><rect x="272" y="172" width="12" height="12" rx="3" fill="#E5E5EA"><title>2026-04-09 · 0 分钟</title></rect><rect x="272" y="191" width="12" height="12" rx="3" fill="#E5E5EA"><title>2026-04-10 · 0 分钟</title></rect><rect x="272" y="210" width="12" height="12" rx="3" fill="#E5E5EA"><title>2026-04-11 · 0 分钟</title></rect><rect x="287" y="96" width="12" height="12" rx="3" fill="#E5E5EA"><title>2026-04-12 · 0 分钟</title></rect><rect x="287" y="115" width="12" height="12" rx="3" fill="#E5E5EA"><title>2026-04-13 · 0 分钟</title></rect><rect x="287" y="134" width="12" height="12" rx="3" fill="#E5E5EA"><title>2026-04-14 · 0 分钟</title></rect><rect x="287" y="153" width="12" height="12" rx="3" fill="#E5E5EA"><title>2026-04-15 · 0 分钟</title></rect><rect x="287" y="172" width="12" height="12" rx="3" fill="#E5E5EA"><title>2026-04-16 · 0 分钟</title></rect><rect x="287" y="191" width="12" height="12" rx="3" fill="#E5E5EA"><title>2026-04-17 · 0 分钟</title></rect><rect x="287" y="210" width="12" height="12" rx="3" fill="#E5E5EA"><title>2026-04-18 · 0 分钟</title></rect><rect x="302" y="96" width="12" height="12" rx="3" fill="#E5E5EA"><title>2026-04-19 · 0 分钟</title></rect><rect x="302" y="115" width="12" height="12" rx="3" fill="#E5E5EA"><title>2026-04-20 · 0 分钟</title></rect><rect x="302" y="134" width="12" height="12" rx="3" fill="#E5E5EA"><title>2026-04-21 · 0 分钟</title></rect><rect x="302" y="153" width="12" height="12" rx="3" fill="#E5E5EA"><title>2026-04-22 · 0 分钟</title></rect><rect x="302" y="172" width="12" height="12" rx="3" fill="#E5E5EA"><title>2026-04-23 · 0 分钟</title></rect><rect x="302" y="191" width="12" height="12" rx="3" fill="#E5E5EA"><title>2026-04-24 · 0 分钟</title></rect><rect x="302" y="210" width="12" height="12" rx="3" fill="#E5E5EA"><title>2026-04-25 · 0 分钟</title></rect><rect x="317" y="96" width="12" height="12" rx="3" fill="#E5E5EA"><title>2026-04-26 · 0 分钟</title></rect><rect x="317" y="115" width="12" height="12" rx="3" fill="#E5E5EA"><title>2026-04-27 · 0 分钟</title></rect><rect x="317" y="134" width="12" height="12" rx="3" fill="#D1F2D8"><title>2026-04-28 · 1 分钟</title></rect><rect x="317" y="153" width="12" height="12" rx="3" fill="#E5E5EA"><title>2026-04-29 · 0 分钟</title></rect><rect x="317" y="172" width="12" height="12" rx="3" fill="#E5E5EA"><title>2026-04-30 · 0 分钟</title></rect><rect x="317" y="191" width="12" height="12" rx="3" fill="#E5E5EA"><title>2026-05-01 · 0 分钟</title></rect><rect x="317" y="210" width="12" height="12" rx="3" fill="#E5E5EA"><title>2026-05-02 · 0 分钟</title></rect><rect x="332" y="96" width="12" height="12" rx="3" fill="#E5E5EA"><title>2026-05-03 · 0 分钟</title></rect><rect x="332" y="115" width="12" height="12" rx="3" fill="#7EDC8F"><title>2026-05-04 · 28 分钟</title></rect><rect x="332" y="134" width="12" height="12" rx="3" fill="#E5E5EA"><title>2026-05-05 · 0 分钟</title></rect><rect x="332" y="153" width="12" height="12" rx="3" fill="#34C759"><title>2026-05-06 · 1 小时 41 分钟</title></rect><rect x="332" y="172" width="12" height="12" rx="3" fill="#E5E5EA"><title>2026-05-07 · 0 分钟</title></rect><rect x="332" y="191" width="12" height="12" rx="3" fill="#D1F2D8"><title>2026-05-08 · 1 分钟</title></rect><rect x="332" y="210" width="12" height="12" rx="3" fill="#E5E5EA"><title>2026-05-09 · 0 分钟</title></rect><rect x="347" y="96" width="12" height="12" rx="3" fill="#E5E5EA"><title>2026-05-10 · 0 分钟</title></rect><rect x="347" y="115" width="12" height="12" rx="3" fill="#E5E5EA"><title>2026-05-11 · 0 分钟</title></rect><rect x="347" y="134" width="12" height="12" rx="3" fill="#E5E5EA"><title>2026-05-12 · 0 分钟</title></rect><rect x="347" y="153" width="12" height="12" rx="3" fill="#7EDC8F"><title>2026-05-13 · 23 分钟</title></rect><rect x="347" y="172" width="12" height="12" rx="3" fill="#E5E5EA"><title>2026-05-14 · 0 分钟</title></rect><rect x="347" y="191" width="12" height="12" rx="3" fill="#E5E5EA"><title>2026-05-15 · 0 分钟</title></rect><rect x="347" y="210" width="12" height="12" rx="3" fill="#E5E5EA"><title>2026-05-16 · 0 分钟</title></rect><rect x="362" y="96" width="12" height="12" rx="3" fill="#E5E5EA"><title>2026-05-17 · 0 分钟</title></rect><rect x="362" y="115" width="12" height="12" rx="3" fill="#7EDC8F"><title>2026-05-18 · 29 分钟</title></rect><rect x="362" y="134" width="12" height="12" rx="3" fill="#D1F2D8"><title>2026-05-19 · 1 分钟</title></rect><rect x="362" y="153" width="12" height="12" rx="3" fill="#D1F2D8"><title>2026-05-20 · 0 分钟</title></rect><rect x="362" y="172" width="12" height="12" rx="3" fill="#E5E5EA"><title>2026-05-21 · 0 分钟</title></rect><rect x="362" y="191" width="12" height="12" rx="3" fill="#E5E5EA"><title>2026-05-22 · 0 分钟</title></rect><rect x="362" y="210" width="12" height="12" rx="3" fill="#E5E5EA"><title>2026-05-23 · 0 分钟</title></rect><rect x="377" y="96" width="12" height="12" rx="3" fill="#E5E5EA"><title>2026-05-24 · 0 分钟</title></rect><rect x="377" y="115" width="12" height="12" rx="3" fill="#D1F2D8"><title>2026-05-25 · 10 分钟</title></rect><rect x="377" y="134" width="12" height="12" rx="3" fill="#E5E5EA"><title>2026-05-26 · 0 分钟</title></rect><rect x="377" y="153" width="12" height="12" rx="3" fill="#E5E5EA"><title>2026-05-27 · 0 分钟</title></rect><rect x="377" y="172" width="12" height="12" rx="3" fill="#E5E5EA"><title>2026-05-28 · 0 分钟</title></rect><rect x="377" y="191" width="12" height="12" rx="3" fill="#E5E5EA"><title>2026-05-29 · 0 分钟</title></rect><rect x="377" y="210" width="12" height="12" rx="3" fill="#E5E5EA"><title>2026-05-30 · 0 分钟</title></rect><rect x="392" y="96" width="12" height="12" rx="3" fill="#E5E5EA"><title>2026-05-31 · 0 分钟</title></rect><rect x="392" y="115" width="12" height="12" rx="3" fill="#E5E5EA"><title>2026-06-01 · 0 分钟</title></rect><rect x="392" y="134" width="12" height="12" rx="3" fill="#E5E5EA"><title>2026-06-02 · 0 分钟</title></rect><rect x="392" y="153" width="12" height="12" rx="3" fill="#D1F2D8"><title>2026-06-03 · 1 分钟</title></rect><rect x="392" y="172" width="12" height="12" rx="3" fill="#E5E5EA"><title>2026-06-04 · 0 分钟</title></rect><rect x="392" y="191" width="12" height="12" rx="3" fill="#E5E5EA"><title>2026-06-05 · 0 分钟</title></rect><rect x="392" y="210" width="12" height="12" rx="3" fill="#E5E5EA"><title>2026-06-06 · 0 分钟</title></rect><rect x="407" y="96" width="12" height="12" rx="3" fill="#E5E5EA"><title>2026-06-07 · 0 分钟</title></rect><rect x="407" y="115" width="12" height="12" rx="3" fill="#E5E5EA"><title>2026-06-08 · 0 分钟</title></rect><rect x="407" y="134" width="12" height="12" rx="3" fill="#E5E5EA"><title>2026-06-09 · 0 分钟</title></rect><rect x="407" y="153" width="12" height="12" rx="3" fill="#E5E5EA"><title>2026-06-10 · 0 分钟</title></rect><rect x="407" y="172" width="12" height="12" rx="3" fill="#E5E5EA"><title>2026-06-11 · 0 分钟</title></rect><rect x="407" y="191" width="12" height="12" rx="3" fill="#E5E5EA"><title>2026-06-12 · 0 分钟</title></rect><rect x="407" y="210" width="12" height="12" rx="3" fill="#E5E5EA"><title>2026-06-13 · 0 分钟</title></rect><rect x="422" y="96" width="12" height="12" rx="3" fill="#E5E5EA"><title>2026-06-14 · 0 分钟</title></rect><rect x="422" y="115" width="12" height="12" rx="3" fill="#E5E5EA"><title>2026-06-15 · 0 分钟</title></rect><rect x="422" y="134" width="12" height="12" rx="3" fill="#E5E5EA"><title>2026-06-16 · 0 分钟</title></rect><rect x="422" y="153" width="12" height="12" rx="3" fill="#E5E5EA"><title>2026-06-17 · 0 分钟</title></rect><rect x="422" y="172" width="12" height="12" rx="3" fill="#E5E5EA"><title>2026-06-18 · 0 分钟</title></rect><rect x="422" y="191" width="12" height="12" rx="3" fill="#E5E5EA"><title>2026-06-19 · 0 分钟</title></rect><rect x="422" y="210" width="12" height="12" rx="3" fill="#E5E5EA"><title>2026-06-20 · 0 分钟</title></rect><rect x="437" y="96" width="12" height="12" rx="3" fill="#E5E5EA"><title>2026-06-21 · 0 分钟</title></rect><rect x="437" y="115" width="12" height="12" rx="3" fill="#E5E5EA"><title>2026-06-22 · 0 分钟</title></rect><rect x="437" y="134" width="12" height="12" rx="3" fill="#E5E5EA"><title>2026-06-23 · 0 分钟</title></rect><rect x="437" y="153" width="12" height="12" rx="3" fill="#E5E5EA"><title>2026-06-24 · 0 分钟</title></rect><rect x="437" y="172" width="12" height="12" rx="3" fill="#E5E5EA"><title>2026-06-25 · 0 分钟</title></rect><rect x="437" y="191" width="12" height="12" rx="3" fill="#E5E5EA"><title>2026-06-26 · 0 分钟</title></rect><rect x="437" y="210" width="12" height="12" rx="3" fill="#E5E5EA"><title>2026-06-27 · 0 分钟</title></rect><rect x="452" y="96" width="12" height="12" rx="3" fill="#E5E5EA"><title>2026-06-28 · 0 分钟</title></rect><rect x="452" y="115" width="12" height="12" rx="3" fill="#E5E5EA"><title>2026-06-29 · 0 分钟</title></rect><rect x="452" y="134" width="12" height="12" rx="3" fill="#E5E5EA"><title>2026-06-30 · 0 分钟</title></rect><rect x="452" y="153" width="12" height="12" rx="3" fill="#E5E5EA"><title>2026-07-01 · 0 分钟</title></rect><rect x="452" y="172" width="12" height="12" rx="3" fill="#E5E5EA"><title>2026-07-02 · 0 分钟</title></rect><rect x="452" y="191" width="12" height="12" rx="3" fill="#E5E5EA"><title>2026-07-03 · 0 分钟</title></rect><rect x="452" y="210" width="12" height="12" rx="3" fill="#E5E5EA"><title>2026-07-04 · 0 分钟</title></rect><rect x="467" y="96" width="12" height="12" rx="3" fill="#E5E5EA"><title>2026-07-05 · 0 分钟</title></rect><rect x="467" y="115" width="12" height="12" rx="3" fill="#E5E5EA"><title>2026-07-06 · 0 分钟</title></rect><rect x="467" y="134" width="12" height="12" rx="3" fill="#E5E5EA"><title>2026-07-07 · 0 分钟</title></rect><rect x="467" y="153" width="12" height="12" rx="3" fill="#E5E5EA"><title>2026-07-08 · 0 分钟</title></rect><rect x="467" y="172" width="12" height="12" rx="3" fill="#E5E5EA"><title>2026-07-09 · 0 分钟</title></rect><rect x="467" y="191" width="12" height="12" rx="3" fill="#E5E5EA"><title>2026-07-10 · 0 分钟</title></rect><rect x="467" y="210" width="12" height="12" rx="3" fill="#E5E5EA"><title>2026-07-11 · 0 分钟</title></rect><rect x="482" y="96" width="12" height="12" rx="3" fill="#E5E5EA"><title>2026-07-12 · 0 分钟</title></rect><rect x="482" y="115" width="12" height="12" rx="3" fill="#E5E5EA"><title>2026-07-13 · 0 分钟</title></rect><rect x="482" y="134" width="12" height="12" rx="3" fill="#E5E5EA"><title>2026-07-14 · 0 分钟</title></rect><rect x="482" y="153" width="12" height="12" rx="3" fill="#E5E5EA"><title>2026-07-15 · 0 分钟</title></rect><rect x="482" y="172" width="12" height="12" rx="3" fill="#E5E5EA"><title>2026-07-16 · 0 分钟</title></rect><rect x="482" y="191" width="12" height="12" rx="3" fill="#E5E5EA"><title>2026-07-17 · 0 分钟</title></rect><rect x="482" y="210" width="12" height="12" rx="3" fill="#E5E5EA"><title>2026-07-18 · 0 分钟</title></rect><rect x="497" y="96" width="12" height="12" rx="3" fill="#E5E5EA"><title>2026-07-19 · 0 分钟</title></rect><rect x="497" y="115" width="12" height="12" rx="3" fill="#E5E5EA"><title>2026-07-20 · 0 分钟</title></rect><rect x="497" y="134" width="12" height="12" rx="3" fill="#E5E5EA"><title>2026-07-21 · 0 分钟</title></rect><rect x="497" y="153" width="12" height="12" rx="3" fill="#E5E5EA"><title>2026-07-22 · 0 分钟</title></rect><rect x="497" y="172" width="12" height="12" rx="3" fill="#E5E5EA"><title>2026-07-23 · 0 分钟</title></rect><rect x="497" y="191" width="12" height="12" rx="3" fill="#E5E5EA"><title>2026-07-24 · 0 分钟</title></rect><rect x="497" y="210" width="12" height="12" rx="3" fill="#E5E5EA"><title>2026-07-25 · 0 分钟</title></rect><rect x="512" y="96" width="12" height="12" rx="3" fill="#E5E5EA"><title>2026-07-26 · 0 分钟</title></rect><rect x="512" y="115" width="12" height="12" rx="3" fill="#E5E5EA"><title>2026-07-27 · 0 分钟</title></rect><rect x="512" y="134" width="12" height="12" rx="3" fill="#E5E5EA"><title>2026-07-28 · 0 分钟</title></rect><rect x="512" y="153" width="12" height="12" rx="3" fill="#E5E5EA"><title>2026-07-29 · 0 分钟</title></rect><rect x="512" y="172" width="12" height="12" rx="3" fill="#E5E5EA"><title>2026-07-30 · 0 分钟</title></rect><rect x="512" y="191" width="12" height="12" rx="3" fill="#E5E5EA"><title>2026-07-31 · 0 分钟</title></rect><rect x="512" y="210" width="12" height="12" rx="3" fill="#E5E5EA"><title>2026-08-01 · 0 分钟</title></rect><rect x="527" y="96" width="12" height="12" rx="3" fill="#E5E5EA"><title>2026-08-02 · 0 分钟</title></rect><rect x="527" y="115" width="12" height="12" rx="3" fill="#E5E5EA"><title>2026-08-03 · 0 分钟</title></rect><rect x="527" y="134" width="12" height="12" rx="3" fill="#E5E5EA"><title>2026-08-04 · 0 分钟</title></rect><rect x="527" y="153" width="12" height="12" rx="3" fill="#E5E5EA"><title>2026-08-05 · 0 分钟</title></rect><rect x="527" y="172" width="12" height="12" rx="3" fill="#E5E5EA"><title>2026-08-06 · 0 分钟</title></rect><rect x="527" y="191" width="12" height="12" rx="3" fill="#E5E5EA"><title>2026-08-07 · 0 分钟</title></rect><rect x="527" y="210" width="12" height="12" rx="3" fill="#E5E5EA"><title>2026-08-08 · 0 分钟</title></rect><rect x="542" y="96" width="12" height="12" rx="3" fill="#E5E5EA"><title>2026-08-09 · 0 分钟</title></rect><rect x="542" y="115" width="12" height="12" rx="3" fill="#E5E5EA"><title>2026-08-10 · 0 分钟</title></rect><rect x="542" y="134" width="12" height="12" rx="3" fill="#E5E5EA"><title>2026-08-11 · 0 分钟</title></rect><rect x="542" y="153" width="12" height="12" rx="3" fill="#E5E5EA"><title>2026-08-12 · 0 分钟</title></rect><rect x="542" y="172" width="12" height="12" rx="3" fill="#E5E5EA"><title>2026-08-13 · 0 分钟</title></rect><rect x="542" y="191" width="12" height="12" rx="3" fill="#E5E5EA"><title>2026-08-14 · 0 分钟</title></rect><rect x="542" y="210" width="12" height="12" rx="3" fill="#E5E5EA"><title>2026-08-15 · 0 分钟</title></rect><rect x="557" y="96" width="12" height="12" rx="3" fill="#E5E5EA"><title>2026-08-16 · 0 分钟</title></rect><rect x="557" y="115" width="12" height="12" rx="3" fill="#E5E5EA"><title>2026-08-17 · 0 分钟</title></rect><rect x="557" y="134" width="12" height="12" rx="3" fill="#E5E5EA"><title>2026-08-18 · 0 分钟</title></rect><rect x="557" y="153" width="12" height="12" rx="3" fill="#E5E5EA"><title>2026-08-19 · 0 分钟</title></rect><rect x="557" y="172" width="12" height="12" rx="3" fill="#E5E5EA"><title>2026-08-20 · 0 分钟</title></rect><rect x="557" y="191" width="12" height="12" rx="3" fill="#E5E5EA"><title>2026-08-21 · 0 分钟</title></rect><rect x="557" y="210" width="12" height="12" rx="3" fill="#E5E5EA"><title>2026-08-22 · 0 分钟</title></rect><rect x="572" y="96" width="12" height="12" rx="3" fill="#E5E5EA"><title>2026-08-23 · 0 分钟</title></rect><rect x="572" y="115" width="12" height="12" rx="3" fill="#E5E5EA"><title>2026-08-24 · 0 分钟</title></rect><rect x="572" y="134" width="12" height="12" rx="3" fill="#E5E5EA"><title>2026-08-25 · 0 分钟</title></rect><rect x="572" y="153" width="12" height="12" rx="3" fill="#E5E5EA"><title>2026-08-26 · 0 分钟</title></rect><rect x="572" y="172" width="12" height="12" rx="3" fill="#E5E5EA"><title>2026-08-27 · 0 分钟</title></rect><rect x="572" y="191" width="12" height="12" rx="3" fill="#E5E5EA"><title>2026-08-28 · 0 分钟</title></rect><rect x="572" y="210" width="12" height="12" rx="3" fill="#E5E5EA"><title>2026-08-29 · 0 分钟</title></rect><rect x="587" y="96" width="12" height="12" rx="3" fill="#E5E5EA"><title>2026-08-30 · 0 分钟</title></rect><rect x="587" y="115" width="12" height="12" rx="3" fill="#E5E5EA"><title>2026-08-31 · 0 分钟</title></rect><rect x="587" y="134" width="12" height="12" rx="3" fill="#E5E5EA"><title>2026-09-01 · 0 分钟</title></rect><rect x="587" y="153" width="12" height="12" rx="3" fill="#E5E5EA"><title>2026-09-02 · 0 分钟</title></rect><rect x="587" y="172" width="12" height="12" rx="3" fill="#E5E5EA"><title>2026-09-03 · 0 分钟</title></rect><rect x="587" y="191" width="12" height="12" rx="3" fill="#E5E5EA"><title>2026-09-04 · 0 分钟</title></rect><rect x="587" y="210" width="12" height="12" rx="3" fill="#E5E5EA"><title>2026-09-05 · 0 分钟</title></rect><rect x="602" y="96" width="12" height="12" rx="3" fill="#E5E5EA"><title>2026-09-06 · 0 分钟</title></rect><rect x="602" y="115" width="12" height="12" rx="3" fill="#E5E5EA"><title>2026-09-07 · 0 分钟</title></rect><rect x="602" y="134" width="12" height="12" rx="3" fill="#E5E5EA"><title>2026-09-08 · 0 分钟</title></rect><rect x="602" y="153" width="12" height="12" rx="3" fill="#E5E5EA"><title>2026-09-09 · 0 分钟</title></rect><rect x="602" y="172" width="12" height="12" rx="3" fill="#E5E5EA"><title>2026-09-10 · 0 分钟</title></rect><rect x="602" y="191" width="12" height="12" rx="3" fill="#E5E5EA"><title>2026-09-11 · 0 分钟</title></rect><rect x="602" y="210" width="12" height="12" rx="3" fill="#E5E5EA"><title>2026-09-12 · 0 分钟</title></rect><rect x="617" y="96" width="12" height="12" rx="3" fill="#E5E5EA"><title>2026-09-13 · 0 分钟</title></rect><rect x="617" y="115" width="12" height="12" rx="3" fill="#E5E5EA"><title>2026-09-14 · 0 分钟</title></rect><rect x="617" y="134" width="12" height="12" rx="3" fill="#E5E5EA"><title>2026-09-15 · 0 分钟</title></rect><rect x="617" y="153" width="12" height="12" rx="3" fill="#E5E5EA"><title>2026-09-16 · 0 分钟</title></rect><rect x="617" y="172" width="12" height="12" rx="3" fill="#E5E5EA"><title>2026-09-17 · 0 分钟</title></rect><rect x="617" y="191" width="12" height="12" rx="3" fill="#E5E5EA"><title>2026-09-18 · 0 分钟</title></rect><rect x="617" y="210" width="12" height="12" rx="3" fill="#E5E5EA"><title>2026-09-19 · 0 分钟</title></rect><rect x="632" y="96" width="12" height="12" rx="3" fill="#E5E5EA"><title>2026-09-20 · 0 分钟</title></rect><rect x="632" y="115" width="12" height="12" rx="3" fill="#E5E5EA"><title>2026-09-21 · 0 分钟</title></rect><rect x="632" y="134" width="12" height="12" rx="3" fill="#E5E5EA"><title>2026-09-22 · 0 分钟</title></rect><rect x="632" y="153" width="12" height="12" rx="3" fill="#E5E5EA"><title>2026-09-23 · 0 分钟</title></rect><rect x="632" y="172" width="12" height="12" rx="3" fill="#E5E5EA"><title>2026-09-24 · 0 分钟</title></rect><rect x="632" y="191" width="12" height="12" rx="3" fill="#E5E5EA"><title>2026-09-25 · 0 分钟</title></rect><rect x="632" y="210" width="12" height="12" rx="3" fill="#E5E5EA"><title>2026-09-26 · 0 分钟</title></rect><rect x="647" y="96" width="12" height="12" rx="3" fill="#E5E5EA"><title>2026-09-27 · 0 分钟</title></rect><rect x="647" y="115" width="12" height="12" rx="3" fill="#E5E5EA"><title>2026-09-28 · 0 分钟</title></rect><rect x="647" y="134" width="12" height="12" rx="3" fill="#E5E5EA"><title>2026-09-29 · 0 分钟</title></rect><rect x="647" y="153" width="12" height="12" rx="3" fill="#E5E5EA"><title>2026-09-30 · 0 分钟</title></rect><rect x="647" y="172" width="12" height="12" rx="3" fill="#E5E5EA"><title>2026-10-01 · 0 分钟</title></rect><rect x="647" y="191" width="12" height="12" rx="3" fill="#E5E5EA"><title>2026-10-02 · 0 分钟</title></rect><rect x="647" y="210" width="12" height="12" rx="3" fill="#E5E5EA"><title>2026-10-03 · 0 分钟</title></rect><rect x="662" y="96" width="12" height="12" rx="3" fill="#E5E5EA"><title>2026-10-04 · 0 分钟</title></rect><rect x="662" y="115" width="12" height="12" rx="3" fill="#E5E5EA"><title>2026-10-05 · 0 分钟</title></rect><rect x="662" y="134" width="12" height="12" rx="3" fill="#E5E5EA"><title>2026-10-06 · 0 分钟</title></rect><rect x="662" y="153" width="12" height="12" rx="3" fill="#E5E5EA"><title>2026-10-07 · 0 分钟</title></rect><rect x="662" y="172" width="12" height="12" rx="3" fill="#E5E5EA"><title>2026-10-08 · 0 分钟</title></rect><rect x="662" y="191" width="12" height="12" rx="3" fill="#E5E5EA"><title>2026-10-09 · 0 分钟</title></rect><rect x="662" y="210" width="12" height="12" rx="3" fill="#E5E5EA"><title>2026-10-10 · 0 分钟</title></rect><rect x="677" y="96" width="12" height="12" rx="3" fill="#E5E5EA"><title>2026-10-11 · 0 分钟</title></rect><rect x="677" y="115" width="12" height="12" rx="3" fill="#E5E5EA"><title>2026-10-12 · 0 分钟</title></rect><rect x="677" y="134" width="12" height="12" rx="3" fill="#E5E5EA"><title>2026-10-13 · 0 分钟</title></rect><rect x="677" y="153" width="12" height="12" rx="3" fill="#E5E5EA"><title>2026-10-14 · 0 分钟</title></rect><rect x="677" y="172" width="12" height="12" rx="3" fill="#E5E5EA"><title>2026-10-15 · 0 分钟</title></rect><rect x="677" y="191" width="12" height="12" rx="3" fill="#E5E5EA"><title>2026-10-16 · 0 分钟</title></rect><rect x="677" y="210" width="12" height="12" rx="3" fill="#E5E5EA"><title>2026-10-17 · 0 分钟</title></rect><rect x="692" y="96" width="12" height="12" rx="3" fill="#E5E5EA"><title>2026-10-18 · 0 分钟</title></rect><rect x="692" y="115" width="12" height="12" rx="3" fill="#E5E5EA"><title>2026-10-19 · 0 分钟</title></rect><rect x="692" y="134" width="12" height="12" rx="3" fill="#E5E5EA"><title>2026-10-20 · 0 分钟</title></rect><rect x="692" y="153" width="12" height="12" rx="3" fill="#E5E5EA"><title>2026-10-21 · 0 分钟</title></rect><rect x="692" y="172" width="12" height="12" rx="3" fill="#E5E5EA"><title>2026-10-22 · 0 分钟</title></rect><rect x="692" y="191" width="12" height="12" rx="3" fill="#E5E5EA"><title>2026-10-23 · 0 分钟</title></rect><rect x="692" y="210" width="12" height="12" rx="3" fill="#E5E5EA"><title>2026-10-24 · 0 分钟</title></rect><rect x="707" y="96" width="12" height="12" rx="3" fill="#E5E5EA"><title>2026-10-25 · 0 分钟</title></rect><rect x="707" y="115" width="12" height="12" rx="3" fill="#E5E5EA"><title>2026-10-26 · 0 分钟</title></rect><rect x="707" y="134" width="12" height="12" rx="3" fill="#E5E5EA"><title>2026-10-27 · 0 分钟</title></rect><rect x="707" y="153" width="12" height="12" rx="3" fill="#E5E5EA"><title>2026-10-28 · 0 分钟</title></rect><rect x="707" y="172" width="12" height="12" rx="3" fill="#E5E5EA"><title>2026-10-29 · 0 分钟</title></rect><rect x="707" y="191" width="12" height="12" rx="3" fill="#E5E5EA"><title>2026-10-30 · 0 分钟</title></rect><rect x="707" y="210" width="12" height="12" rx="3" fill="#E5E5EA"><title>2026-10-31 · 0 分钟</title></rect><rect x="722" y="96" width="12" height="12" rx="3" fill="#E5E5EA"><title>2026-11-01 · 0 分钟</title></rect><rect x="722" y="115" width="12" height="12" rx="3" fill="#E5E5EA"><title>2026-11-02 · 0 分钟</title></rect><rect x="722" y="134" width="12" height="12" rx="3" fill="#E5E5EA"><title>2026-11-03 · 0 分钟</title></rect><rect x="722" y="153" width="12" height="12" rx="3" fill="#E5E5EA"><title>2026-11-04 · 0 分钟</title></rect><rect x="722" y="172" width="12" height="12" rx="3" fill="#E5E5EA"><title>2026-11-05 · 0 分钟</title></rect><rect x="722" y="191" width="12" height="12" rx="3" fill="#E5E5EA"><title>2026-11-06 · 0 分钟</title></rect><rect x="722" y="210" width="12" height="12" rx="3" fill="#E5E5EA"><title>2026-11-07 · 0 分钟</title></rect><rect x="737" y="96" width="12" height="12" rx="3" fill="#E5E5EA"><title>2026-11-08 · 0 分钟</title></rect><rect x="737" y="115" width="12" height="12" rx="3" fill="#E5E5EA"><title>2026-11-09 · 0 分钟</title></rect><rect x="737" y="134" width="12" height="12" rx="3" fill="#E5E5EA"><title>2026-11-10 · 0 分钟</title></rect><rect x="737" y="153" width="12" height="12" rx="3" fill="#E5E5EA"><title>2026-11-11 · 0 分钟</title></rect><rect x="737" y="172" width="12" height="12" rx="3" fill="#E5E5EA"><title>2026-11-12 · 0 分钟</title></rect><rect x="737" y="191" width="12" height="12" rx="3" fill="#E5E5EA"><title>2026-11-13 · 0 分钟</title></rect><rect x="737" y="210" width="12" height="12" rx="3" fill="#E5E5EA"><title>2026-11-14 · 0 分钟</title></rect><rect x="752" y="96" width="12" height="12" rx="3" fill="#E5E5EA"><title>2026-11-15 · 0 分钟</title></rect><rect x="752" y="115" width="12" height="12" rx="3" fill="#E5E5EA"><title>2026-11-16 · 0 分钟</title></rect><rect x="752" y="134" width="12" height="12" rx="3" fill="#E5E5EA"><title>2026-11-17 · 0 分钟</title></rect><rect x="752" y="153" width="12" height="12" rx="3" fill="#E5E5EA"><title>2026-11-18 · 0 分钟</title></rect><rect x="752" y="172" width="12" height="12" rx="3" fill="#E5E5EA"><title>2026-11-19 · 0 分钟</title></rect><rect x="752" y="191" width="12" height="12" rx="3" fill="#E5E5EA"><title>2026-11-20 · 0 分钟</title></rect><rect x="752" y="210" width="12" height="12" rx="3" fill="#E5E5EA"><title>2026-11-21 · 0 分钟</title></rect><rect x="767" y="96" width="12" height="12" rx="3" fill="#E5E5EA"><title>2026-11-22 · 0 分钟</title></rect><rect x="767" y="115" width="12" height="12" rx="3" fill="#E5E5EA"><title>2026-11-23 · 0 分钟</title></rect><rect x="767" y="134" width="12" height="12" rx="3" fill="#E5E5EA"><title>2026-11-24 · 0 分钟</title></rect><rect x="767" y="153" width="12" height="12" rx="3" fill="#E5E5EA"><title>2026-11-25 · 0 分钟</title></rect><rect x="767" y="172" width="12" height="12" rx="3" fill="#E5E5EA"><title>2026-11-26 · 0 分钟</title></rect><rect x="767" y="191" width="12" height="12" rx="3" fill="#E5E5EA"><title>2026-11-27 · 0 分钟</title></rect><rect x="767" y="210" width="12" height="12" rx="3" fill="#E5E5EA"><title>2026-11-28 · 0 分钟</title></rect><rect x="782" y="96" width="12" height="12" rx="3" fill="#E5E5EA"><title>2026-11-29 · 0 分钟</title></rect><rect x="782" y="115" width="12" height="12" rx="3" fill="#E5E5EA"><title>2026-11-30 · 0 分钟</title></rect><rect x="782" y="134" width="12" height="12" rx="3" fill="#E5E5EA"><title>2026-12-01 · 0 分钟</title></rect><rect x="782" y="153" width="12" height="12" rx="3" fill="#E5E5EA"><title>2026-12-02 · 0 分钟</title></rect><rect x="782" y="172" width="12" height="12" rx="3" fill="#E5E5EA"><title>2026-12-03 · 0 分钟</title></rect><rect x="782" y="191" width="12" height="12" rx="3" fill="#E5E5EA"><title>2026-12-04 · 0 分钟</title></rect><rect x="782" y="210" width="12" height="12" rx="3" fill="#E5E5EA"><title>2026-12-05 · 0 分钟</title></rect><rect x="797" y="96" width="12" height="12" rx="3" fill="#E5E5EA"><title>2026-12-06 · 0 分钟</title></rect><rect x="797" y="115" width="12" height="12" rx="3" fill="#E5E5EA"><title>2026-12-07 · 0 分钟</title></rect><rect x="797" y="134" width="12" height="12" rx="3" fill="#E5E5EA"><title>2026-12-08 · 0 分钟</title></rect><rect x="797" y="153" width="12" height="12" rx="3" fill="#E5E5EA"><title>2026-12-09 · 0 分钟</title></rect><rect x="797" y="172" width="12" height="12" rx="3" fill="#E5E5EA"><title>2026-12-10 · 0 分钟</title></rect><rect x="797" y="191" width="12" height="12" rx="3" fill="#E5E5EA"><title>2026-12-11 · 0 分钟</title></rect><rect x="797" y="210" width="12" height="12" rx="3" fill="#E5E5EA"><title>2026-12-12 · 0 分钟</title></rect><rect x="812" y="96" width="12" height="12" rx="3" fill="#E5E5EA"><title>2026-12-13 · 0 分钟</title></rect><rect x="812" y="115" width="12" height="12" rx="3" fill="#E5E5EA"><title>2026-12-14 · 0 分钟</title></rect><rect x="812" y="134" width="12" height="12" rx="3" fill="#E5E5EA"><title>2026-12-15 · 0 分钟</title></rect><rect x="812" y="153" width="12" height="12" rx="3" fill="#E5E5EA"><title>2026-12-16 · 0 分钟</title></rect><rect x="812" y="172" width="12" height="12" rx="3" fill="#E5E5EA"><title>2026-12-17 · 0 分钟</title></rect><rect x="812" y="191" width="12" height="12" rx="3" fill="#E5E5EA"><title>2026-12-18 · 0 分钟</title></rect><rect x="812" y="210" width="12" height="12" rx="3" fill="#E5E5EA"><title>2026-12-19 · 0 分钟</title></rect><rect x="827" y="96" width="12" height="12" rx="3" fill="#E5E5EA"><title>2026-12-20 · 0 分钟</title></rect><rect x="827" y="115" width="12" height="12" rx="3" fill="#E5E5EA"><title>2026-12-21 · 0 分钟</title></rect><rect x="827" y="134" width="12" height="12" rx="3" fill="#E5E5EA"><title>2026-12-22 · 0 分钟</title></rect><rect x="827" y="153" width="12" height="12" rx="3" fill="#E5E5EA"><title>2026-12-23 · 0 分钟</title></rect><rect x="827" y="172" width="12" height="12" rx="3" fill="#E5E5EA"><title>2026-12-24 · 0 分钟</title></rect><rect x="827" y="191" width="12" height="12" rx="3" fill="#E5E5EA"><title>2026-12-25 · 0 分钟</title></rect><rect x="827" y="210" width="12" height="12" rx="3" fill="#E5E5EA"><title>2026-12-26 · 0 分钟</title></rect><rect x="842" y="96" width="12" height="12" rx="3" fill="#E5E5EA"><title>2026-12-27 · 0 分钟</title></rect><rect x="842" y="115" width="12" height="12" rx="3" fill="#E5E5EA"><title>2026-12-28 · 0 分钟</title></rect><rect x="842" y="134" width="12" height="12" rx="3" fill="#E5E5EA"><title>2026-12-29 · 0 分钟</title></rect><rect x="842" y="153" width="12" height="12" rx="3" fill="#E5E5EA"><title>2026-12-30 · 0 分钟</title></rect><rect x="842" y="172" width="12" height="12" rx="3" fill="#E5E5EA"><title>2026-12-31 · 0 分钟</title></rect></g>
<g fill="#86868B" font-family="-apple-system,BlinkMacSystemFont,'SF Pro Text','Helvetica Neue','Noto Sans SC',sans-serif" font-size="10" font-weight="500"><text x="702" y="248">少</text><rect x="727" y="238" width="12" height="12" rx="3" fill="#E5E5EA"/><rect x="745" y="238" width="12" height="12" rx="3" fill="#D1F2D8"/><rect x="763" y="238" width="12" height="12" rx="3" fill="#7EDC8F"/><rect x="781" y="238" width="12" height="12" rx="3" fill="#34C759"/><text x="806" y="248">多</text></g>
</svg>
