<?xml version="1.0" encoding="UTF-8"?>
<svg xmlns="http://www.w3.org/2000/svg" width="865" height="211" viewBox="0 0 865 211" role="img" aria-labelledby="title description">
<title id="title">微信读书 · 阅读热力图</title>
<desc id="description">2026 年阅读时长热力图，共 9 个阅读日，累计 3 小时 45 分钟</desc>
<rect width="100%" height="100%" rx="10" fill="#FFFFFF"/>
<g fill="#24292F" font-family="-apple-system,BlinkMacSystemFont,'Segoe UI','Noto Sans SC',sans-serif">
<text x="18" y="28" font-size="16" font-weight="600">微信读书 · 阅读热力图</text>
<text x="18" y="47" font-size="11" opacity="0.72">2026 · 9 个阅读日 · 3 小时 45 分钟</text>
<g font-size="10" opacity="0.72"><text x="46" y="58">1月</text><text x="121" y="58">2月</text><text x="181" y="58">3月</text><text x="241" y="58">4月</text><text x="301" y="58">5月</text><text x="376" y="58">6月</text><text x="436" y="58">7月</text><text x="496" y="58">8月</text><text x="571" y="58">9月</text><text x="631" y="58">10月</text><text x="706" y="58">11月</text><text x="766" y="58">12月</text></g>
<g font-size="10" opacity="0.72"><text x="18" y="97">一</text><text x="18" y="127">三</text><text x="18" y="157">五</text></g>
</g>
<g><rect x="46" y="132" width="12" height="12" rx="2" fill="#EBEDF0"><title>2026-01-01 · 0 分钟</title></rect><rect x="46" y="147" width="12" height="12" rx="2" fill="#EBEDF0"><title>2026-01-02 · 0 分钟</title></rect><rect x="46" y="162" width="12" height="12" rx="2" fill="#EBEDF0"><title>2026-01-03 · 0 分钟</title></rect><rect x="61" y="72" width="12" height="12" rx="2" fill="#EBEDF0"><title>2026-01-04 · 0 分钟</title></rect><rect x="61" y="87" width="12" height="12" rx="2" fill="#EBEDF0"><title>2026-01-05 · 0 分钟</title></rect><rect x="61" y="102" width="12" height="12" rx="2" fill="#EBEDF0"><title>2026-01-06 · 0 分钟</title></rect><rect x="61" y="117" width="12" height="12" rx="2" fill="#ACE7AE"><title>2026-01-07 · 2 分钟</title></rect><rect x="61" y="132" width="12" height="12" rx="2" fill="#EBEDF0"><title>2026-01-08 · 0 分钟</title></rect><rect x="61" y="147" width="12" height="12" rx="2" fill="#EBEDF0"><title>2026-01-09 · 0 分钟</title></rect><rect x="61" y="162" width="12" height="12" rx="2" fill="#EBEDF0"><title>2026-01-10 · 0 分钟</title></rect><rect x="76" y="72" width="12" height="12" rx="2" fill="#EBEDF0"><title>2026-01-11 · 0 分钟</title></rect><rect x="76" y="87" width="12" height="12" rx="2" fill="#EBEDF0"><title>2026-01-12 · 0 分钟</title></rect><rect x="76" y="102" width="12" height="12" rx="2" fill="#EBEDF0"><title>2026-01-13 · 0 分钟</title></rect><rect x="76" y="117" width="12" height="12" rx="2" fill="#EBEDF0"><title>2026-01-14 · 0 分钟</title></rect><rect x="76" y="132" width="12" height="12" rx="2" fill="#EBEDF0"><title>2026-01-15 · 0 分钟</title></rect><rect x="76" y="147" width="12" height="12" rx="2" fill="#EBEDF0"><title>2026-01-16 · 0 分钟</title></rect><rect x="76" y="162" width="12" height="12" rx="2" fill="#EBEDF0"><title>2026-01-17 · 0 分钟</title></rect><rect x="91" y="72" width="12" height="12" rx="2" fill="#EBEDF0"><title>2026-01-18 · 0 分钟</title></rect><rect x="91" y="87" width="12" height="12" rx="2" fill="#EBEDF0"><title>2026-01-19 · 0 分钟</title></rect><rect x="91" y="102" width="12" height="12" rx="2" fill="#EBEDF0"><title>2026-01-20 · 0 分钟</title></rect><rect x="91" y="117" width="12" height="12" rx="2" fill="#EBEDF0"><title>2026-01-21 · 0 分钟</title></rect><rect x="91" y="132" width="12" height="12" rx="2" fill="#EBEDF0"><title>2026-01-22 · 0 分钟</title></rect><rect x="91" y="147" width="12" height="12" rx="2" fill="#EBEDF0"><title>2026-01-23 · 0 分钟</title></rect><rect x="91" y="162" width="12" height="12" rx="2" fill="#69C16E"><title>2026-01-24 · 27 分钟</title></rect><rect x="106" y="72" width="12" height="12" rx="2" fill="#EBEDF0"><title>2026-01-25 · 0 分钟</title></rect><rect x="106" y="87" width="12" height="12" rx="2" fill="#EBEDF0"><title>2026-01-26 · 0 分钟</title></rect><rect x="106" y="102" width="12" height="12" rx="2" fill="#EBEDF0"><title>2026-01-27 · 0 分钟</title></rect><rect x="106" y="117" width="12" height="12" rx="2" fill="#EBEDF0"><title>2026-01-28 · 0 分钟</title></rect><rect x="106" y="132" width="12" height="12" rx="2" fill="#EBEDF0"><title>2026-01-29 · 0 分钟</title></rect><rect x="106" y="147" width="12" height="12" rx="2" fill="#EBEDF0"><title>2026-01-30 · 0 分钟</title></rect><rect x="106" y="162" width="12" height="12" rx="2" fill="#EBEDF0"><title>2026-01-31 · 0 分钟</title></rect><rect x="121" y="72" width="12" height="12" rx="2" fill="#EBEDF0"><title>2026-02-01 · 0 分钟</title></rect><rect x="121" y="87" width="12" height="12" rx="2" fill="#EBEDF0"><title>2026-02-02 · 0 分钟</title></rect><rect x="121" y="102" width="12" height="12" rx="2" fill="#EBEDF0"><title>2026-02-03 · 0 分钟</title></rect><rect x="121" y="117" width="12" height="12" rx="2" fill="#EBEDF0"><title>2026-02-04 · 0 分钟</title></rect><rect x="121" y="132" width="12" height="12" rx="2" fill="#EBEDF0"><title>2026-02-05 · 0 分钟</title></rect><rect x="121" y="147" width="12" height="12" rx="2" fill="#EBEDF0"><title>2026-02-06 · 0 分钟</title></rect><rect x="121" y="162" width="12" height="12" rx="2" fill="#EBEDF0"><title>2026-02-07 · 0 分钟</title></rect><rect x="136" y="72" width="12" height="12" rx="2" fill="#EBEDF0"><title>2026-02-08 · 0 分钟</title></rect><rect x="136" y="87" width="12" height="12" rx="2" fill="#EBEDF0"><title>2026-02-09 · 0 分钟</title></rect><rect x="136" y="102" width="12" height="12" rx="2" fill="#EBEDF0"><title>2026-02-10 · 0 分钟</title></rect><rect x="136" y="117" width="12" height="12" rx="2" fill="#ACE7AE"><title>2026-02-11 · 0 分钟</title></rect><rect x="136" y="132" width="12" height="12" rx="2" fill="#EBEDF0"><title>2026-02-12 · 0 分钟</title></rect><rect x="136" y="147" width="12" height="12" rx="2" fill="#EBEDF0"><title>2026-02-13 · 0 分钟</title></rect><rect x="136" y="162" width="12" height="12" rx="2" fill="#EBEDF0"><title>2026-02-14 · 0 分钟</title></rect><rect x="151" y="72" width="12" height="12" rx="2" fill="#EBEDF0"><title>2026-02-15 · 0 分钟</title></rect><rect x="151" y="87" width="12" height="12" rx="2" fill="#EBEDF0"><title>2026-02-16 · 0 分钟</title></rect><rect x="151" y="102" width="12" height="12" rx="2" fill="#EBEDF0"><title>2026-02-17 · 0 分钟</title></rect><rect x="151" y="117" width="12" height="12" rx="2" fill="#EBEDF0"><title>2026-02-18 · 0 分钟</title></rect><rect x="151" y="132" width="12" height="12" rx="2" fill="#EBEDF0"><title>2026-02-19 · 0 分钟</title></rect><rect x="151" y="147" width="12" height="12" rx="2" fill="#EBEDF0"><title>2026-02-20 · 0 分钟</title></rect><rect x="151" y="162" width="12" height="12" rx="2" fill="#EBEDF0"><title>2026-02-21 · 0 分钟</title></rect><rect x="166" y="72" width="12" height="12" rx="2" fill="#EBEDF0"><title>2026-02-22 · 0 分钟</title></rect><rect x="166" y="87" width="12" height="12" rx="2" fill="#EBEDF0"><title>2026-02-23 · 0 分钟</title></rect><rect x="166" y="102" width="12" height="12" rx="2" fill="#EBEDF0"><title>2026-02-24 · 0 分钟</title></rect><rect x="166" y="117" width="12" height="12" rx="2" fill="#EBEDF0"><title>2026-02-25 · 0 分钟</title></rect><rect x="166" y="132" width="12" height="12" rx="2" fill="#EBEDF0"><title>2026-02-26 · 0 分钟</title></rect><rect x="166" y="147" width="12" height="12" rx="2" fill="#EBEDF0"><title>2026-02-27 · 0 分钟</title></rect><rect x="166" y="162" width="12" height="12" rx="2" fill="#EBEDF0"><title>2026-02-28 · 0 分钟</title></rect><rect x="181" y="72" width="12" height="12" rx="2" fill="#EBEDF0"><title>2026-03-01 · 0 分钟</title></rect><rect x="181" y="87" width="12" height="12" rx="2" fill="#EBEDF0"><title>2026-03-02 · 0 分钟</title></rect><rect x="181" y="102" width="12" height="12" rx="2" fill="#EBEDF0"><title>2026-03-03 · 0 分钟</title></rect><rect x="181" y="117" width="12" height="12" rx="2" fill="#EBEDF0"><title>2026-03-04 · 0 分钟</title></rect><rect x="181" y="132" width="12" height="12" rx="2" fill="#EBEDF0"><title>2026-03-05 · 0 分钟</title></rect><rect x="181" y="147" width="12" height="12" rx="2" fill="#EBEDF0"><title>2026-03-06 · 0 分钟</title></rect><rect x="181" y="162" width="12" height="12" rx="2" fill="#EBEDF0"><title>2026-03-07 · 0 分钟</title></rect><rect x="196" y="72" width="12" height="12" rx="2" fill="#EBEDF0"><title>2026-03-08 · 0 分钟</title></rect><rect x="196" y="87" width="12" height="12" rx="2" fill="#EBEDF0"><title>2026-03-09 · 0 分钟</title></rect><rect x="196" y="102" width="12" height="12" rx="2" fill="#EBEDF0"><title>2026-03-10 · 0 分钟</title></rect><rect x="196" y="117" width="12" height="12" rx="2" fill="#EBEDF0"><title>2026-03-11 · 0 分钟</title></rect><rect x="196" y="132" width="12" height="12" rx="2" fill="#EBEDF0"><title>2026-03-12 · 0 分钟</title></rect><rect x="196" y="147" width="12" height="12" rx="2" fill="#EBEDF0"><title>2026-03-13 · 0 分钟</title></rect><rect x="196" y="162" width="12" height="12" rx="2" fill="#EBEDF0"><title>2026-03-14 · 0 分钟</title></rect><rect x="211" y="72" width="12" height="12" rx="2" fill="#EBEDF0"><title>2026-03-15 · 0 分钟</title></rect><rect x="211" y="87" width="12" height="12" rx="2" fill="#EBEDF0"><title>2026-03-16 · 0 分钟</title></rect><rect x="211" y="102" width="12" height="12" rx="2" fill="#EBEDF0"><title>2026-03-17 · 0 分钟</title></rect><rect x="211" y="117" width="12" height="12" rx="2" fill="#EBEDF0"><title>2026-03-18 · 0 分钟</title></rect><rect x="211" y="132" width="12" height="12" rx="2" fill="#EBEDF0"><title>2026-03-19 · 0 分钟</title></rect><rect x="211" y="147" width="12" height="12" rx="2" fill="#EBEDF0"><title>2026-03-20 · 0 分钟</title></rect><rect x="211" y="162" width="12" height="12" rx="2" fill="#EBEDF0"><title>2026-03-21 · 0 分钟</title></rect><rect x="226" y="72" width="12" height="12" rx="2" fill="#EBEDF0"><title>2026-03-22 · 0 分钟</title></rect><rect x="226" y="87" width="12" height="12" rx="2" fill="#EBEDF0"><title>2026-03-23 · 0 分钟</title></rect><rect x="226" y="102" width="12" height="12" rx="2" fill="#EBEDF0"><title>2026-03-24 · 0 分钟</title></rect><rect x="226" y="117" width="12" height="12" rx="2" fill="#ACE7AE"><title>2026-03-25 · 1 分钟</title></rect><rect x="226" y="132" width="12" height="12" rx="2" fill="#EBEDF0"><title>2026-03-26 · 0 分钟</title></rect><rect x="226" y="147" width="12" height="12" rx="2" fill="#EBEDF0"><title>2026-03-27 · 0 分钟</title></rect><rect x="226" y="162" width="12" height="12" rx="2" fill="#EBEDF0"><title>2026-03-28 · 0 分钟</title></rect><rect x="241" y="72" width="12" height="12" rx="2" fill="#EBEDF0"><title>2026-03-29 · 0 分钟</title></rect><rect x="241" y="87" width="12" height="12" rx="2" fill="#EBEDF0"><title>2026-03-30 · 0 分钟</title></rect><rect x="241" y="102" width="12" height="12" rx="2" fill="#EBEDF0"><title>2026-03-31 · 0 分钟</title></rect><rect x="241" y="117" width="12" height="12" rx="2" fill="#EBEDF0"><title>2026-04-01 · 0 分钟</title></rect><rect x="241" y="132" width="12" height="12" rx="2" fill="#EBEDF0"><title>2026-04-02 · 0 分钟</title></rect><rect x="241" y="147" width="12" height="12" rx="2" fill="#EBEDF0"><title>2026-04-03 · 0 分钟</title></rect><rect x="241" y="162" width="12" height="12" rx="2" fill="#EBEDF0"><title>2026-04-04 · 0 分钟</title></rect><rect x="256" y="72" width="12" height="12" rx="2" fill="#EBEDF0"><title>2026-04-05 · 0 分钟</title></rect><rect x="256" y="87" width="12" height="12" rx="2" fill="#EBEDF0"><title>2026-04-06 · 0 分钟</title></rect><rect x="256" y="102" width="12" height="12" rx="2" fill="#EBEDF0"><title>2026-04-07 · 0 分钟</title></rect><rect x="256" y="117" width="12" height="12" rx="2" fill="#EBEDF0"><title>2026-04-08 · 0 分钟</title></rect><rect x="256" y="132" width="12" height="12" rx="2" fill="#EBEDF0"><title>2026-04-09 · 0 分钟</title></rect><rect x="256" y="147" width="12" height="12" rx="2" fill="#EBEDF0"><title>2026-04-10 · 0 分钟</title></rect><rect x="256" y="162" width="12" height="12" rx="2" fill="#EBEDF0"><title>2026-04-11 · 0 分钟</title></rect><rect x="271" y="72" width="12" height="12" rx="2" fill="#EBEDF0"><title>2026-04-12 · 0 分钟</title></rect><rect x="271" y="87" width="12" height="12" rx="2" fill="#EBEDF0"><title>2026-04-13 · 0 分钟</title></rect><rect x="271" y="102" width="12" height="12" rx="2" fill="#EBEDF0"><title>2026-04-14 · 0 分钟</title></rect><rect x="271" y="117" width="12" height="12" rx="2" fill="#EBEDF0"><title>2026-04-15 · 0 分钟</title></rect><rect x="271" y="132" width="12" height="12" rx="2" fill="#EBEDF0"><title>2026-04-16 · 0 分钟</title></rect><rect x="271" y="147" width="12" height="12" rx="2" fill="#EBEDF0"><title>2026-04-17 · 0 分钟</title></rect><rect x="271" y="162" width="12" height="12" rx="2" fill="#EBEDF0"><title>2026-04-18 · 0 分钟</title></rect><rect x="286" y="72" width="12" height="12" rx="2" fill="#EBEDF0"><title>2026-04-19 · 0 分钟</title></rect><rect x="286" y="87" width="12" height="12" rx="2" fill="#EBEDF0"><title>2026-04-20 · 0 分钟</title></rect><rect x="286" y="102" width="12" height="12" rx="2" fill="#EBEDF0"><title>2026-04-21 · 0 分钟</title></rect><rect x="286" y="117" width="12" height="12" rx="2" fill="#EBEDF0"><title>2026-04-22 · 0 分钟</title></rect><rect x="286" y="132" width="12" height="12" rx="2" fill="#EBEDF0"><title>2026-04-23 · 0 分钟</title></rect><rect x="286" y="147" width="12" height="12" rx="2" fill="#EBEDF0"><title>2026-04-24 · 0 分钟</title></rect><rect x="286" y="162" width="12" height="12" rx="2" fill="#EBEDF0"><title>2026-04-25 · 0 分钟</title></rect><rect x="301" y="72" width="12" height="12" rx="2" fill="#EBEDF0"><title>2026-04-26 · 0 分钟</title></rect><rect x="301" y="87" width="12" height="12" rx="2" fill="#EBEDF0"><title>2026-04-27 · 0 分钟</title></rect><rect x="301" y="102" width="12" height="12" rx="2" fill="#ACE7AE"><title>2026-04-28 · 1 分钟</title></rect><rect x="301" y="117" width="12" height="12" rx="2" fill="#EBEDF0"><title>2026-04-29 · 0 分钟</title></rect><rect x="301" y="132" width="12" height="12" rx="2" fill="#EBEDF0"><title>2026-04-30 · 0 分钟</title></rect><rect x="301" y="147" width="12" height="12" rx="2" fill="#EBEDF0"><title>2026-05-01 · 0 分钟</title></rect><rect x="301" y="162" width="12" height="12" rx="2" fill="#EBEDF0"><title>2026-05-02 · 0 分钟</title></rect><rect x="316" y="72" width="12" height="12" rx="2" fill="#EBEDF0"><title>2026-05-03 · 0 分钟</title></rect><rect x="316" y="87" width="12" height="12" rx="2" fill="#69C16E"><title>2026-05-04 · 28 分钟</title></rect><rect x="316" y="102" width="12" height="12" rx="2" fill="#EBEDF0"><title>2026-05-05 · 0 分钟</title></rect><rect x="316" y="117" width="12" height="12" rx="2" fill="#549F57"><title>2026-05-06 · 1 小时 41 分钟</title></rect><rect x="316" y="132" width="12" height="12" rx="2" fill="#EBEDF0"><title>2026-05-07 · 0 分钟</title></rect><rect x="316" y="147" width="12" height="12" rx="2" fill="#ACE7AE"><title>2026-05-08 · 1 分钟</title></rect><rect x="316" y="162" width="12" height="12" rx="2" fill="#EBEDF0"><title>2026-05-09 · 0 分钟</title></rect><rect x="331" y="72" width="12" height="12" rx="2" fill="#EBEDF0"><title>2026-05-10 · 0 分钟</title></rect><rect x="331" y="87" width="12" height="12" rx="2" fill="#EBEDF0"><title>2026-05-11 · 0 分钟</title></rect><rect x="331" y="102" width="12" height="12" rx="2" fill="#EBEDF0"><title>2026-05-12 · 0 分钟</title></rect><rect x="331" y="117" width="12" height="12" rx="2" fill="#69C16E"><title>2026-05-13 · 23 分钟</title></rect><rect x="331" y="132" width="12" height="12" rx="2" fill="#EBEDF0"><title>2026-05-14 · 0 分钟</title></rect><rect x="331" y="147" width="12" height="12" rx="2" fill="#EBEDF0"><title>2026-05-15 · 0 分钟</title></rect><rect x="331" y="162" width="12" height="12" rx="2" fill="#EBEDF0"><title>2026-05-16 · 0 分钟</title></rect><rect x="346" y="72" width="12" height="12" rx="2" fill="#EBEDF0"><title>2026-05-17 · 0 分钟</title></rect><rect x="346" y="87" width="12" height="12" rx="2" fill="#69C16E"><title>2026-05-18 · 29 分钟</title></rect><rect x="346" y="102" width="12" height="12" rx="2" fill="#ACE7AE"><title>2026-05-19 · 1 分钟</title></rect><rect x="346" y="117" width="12" height="12" rx="2" fill="#ACE7AE"><title>2026-05-20 · 0 分钟</title></rect><rect x="346" y="132" width="12" height="12" rx="2" fill="#EBEDF0"><title>2026-05-21 · 0 分钟</title></rect><rect x="346" y="147" width="12" height="12" rx="2" fill="#EBEDF0"><title>2026-05-22 · 0 分钟</title></rect><rect x="346" y="162" width="12" height="12" rx="2" fill="#EBEDF0"><title>2026-05-23 · 0 分钟</title></rect><rect x="361" y="72" width="12" height="12" rx="2" fill="#EBEDF0"><title>2026-05-24 · 0 分钟</title></rect><rect x="361" y="87" width="12" height="12" rx="2" fill="#ACE7AE"><title>2026-05-25 · 10 分钟</title></rect><rect x="361" y="102" width="12" height="12" rx="2" fill="#EBEDF0"><title>2026-05-26 · 0 分钟</title></rect><rect x="361" y="117" width="12" height="12" rx="2" fill="#EBEDF0"><title>2026-05-27 · 0 分钟</title></rect><rect x="361" y="132" width="12" height="12" rx="2" fill="#EBEDF0"><title>2026-05-28 · 0 分钟</title></rect><rect x="361" y="147" width="12" height="12" rx="2" fill="#EBEDF0"><title>2026-05-29 · 0 分钟</title></rect><rect x="361" y="162" width="12" height="12" rx="2" fill="#EBEDF0"><title>2026-05-30 · 0 分钟</title></rect><rect x="376" y="72" width="12" height="12" rx="2" fill="#EBEDF0"><title>2026-05-31 · 0 分钟</title></rect><rect x="376" y="87" width="12" height="12" rx="2" fill="#EBEDF0"><title>2026-06-01 · 0 分钟</title></rect><rect x="376" y="102" width="12" height="12" rx="2" fill="#EBEDF0"><title>2026-06-02 · 0 分钟</title></rect><rect x="376" y="117" width="12" height="12" rx="2" fill="#ACE7AE"><title>2026-06-03 · 1 分钟</title></rect><rect x="376" y="132" width="12" height="12" rx="2" fill="#EBEDF0"><title>2026-06-04 · 0 分钟</title></rect><rect x="376" y="147" width="12" height="12" rx="2" fill="#EBEDF0"><title>2026-06-05 · 0 分钟</title></rect><rect x="376" y="162" width="12" height="12" rx="2" fill="#EBEDF0"><title>2026-06-06 · 0 分钟</title></rect><rect x="391" y="72" width="12" height="12" rx="2" fill="#EBEDF0"><title>2026-06-07 · 0 分钟</title></rect><rect x="391" y="87" width="12" height="12" rx="2" fill="#EBEDF0"><title>2026-06-08 · 0 分钟</title></rect><rect x="391" y="102" width="12" height="12" rx="2" fill="#EBEDF0"><title>2026-06-09 · 0 分钟</title></rect><rect x="391" y="117" width="12" height="12" rx="2" fill="#EBEDF0"><title>2026-06-10 · 0 分钟</title></rect><rect x="391" y="132" width="12" height="12" rx="2" fill="#EBEDF0"><title>2026-06-11 · 0 分钟</title></rect><rect x="391" y="147" width="12" height="12" rx="2" fill="#EBEDF0"><title>2026-06-12 · 0 分钟</title></rect><rect x="391" y="162" width="12" height="12" rx="2" fill="#EBEDF0"><title>2026-06-13 · 0 分钟</title></rect><rect x="406" y="72" width="12" height="12" rx="2" fill="#EBEDF0"><title>2026-06-14 · 0 分钟</title></rect><rect x="406" y="87" width="12" height="12" rx="2" fill="#EBEDF0"><title>2026-06-15 · 0 分钟</title></rect><rect x="406" y="102" width="12" height="12" rx="2" fill="#EBEDF0"><title>2026-06-16 · 0 分钟</title></rect><rect x="406" y="117" width="12" height="12" rx="2" fill="#EBEDF0"><title>2026-06-17 · 0 分钟</title></rect><rect x="406" y="132" width="12" height="12" rx="2" fill="#EBEDF0"><title>2026-06-18 · 0 分钟</title></rect><rect x="406" y="147" width="12" height="12" rx="2" fill="#EBEDF0"><title>2026-06-19 · 0 分钟</title></rect><rect x="406" y="162" width="12" height="12" rx="2" fill="#EBEDF0"><title>2026-06-20 · 0 分钟</title></rect><rect x="421" y="72" width="12" height="12" rx="2" fill="#EBEDF0"><title>2026-06-21 · 0 分钟</title></rect><rect x="421" y="87" width="12" height="12" rx="2" fill="#EBEDF0"><title>2026-06-22 · 0 分钟</title></rect><rect x="421" y="102" width="12" height="12" rx="2" fill="#EBEDF0"><title>2026-06-23 · 0 分钟</title></rect><rect x="421" y="117" width="12" height="12" rx="2" fill="#EBEDF0"><title>2026-06-24 · 0 分钟</title></rect><rect x="421" y="132" width="12" height="12" rx="2" fill="#EBEDF0"><title>2026-06-25 · 0 分钟</title></rect><rect x="421" y="147" width="12" height="12" rx="2" fill="#EBEDF0"><title>2026-06-26 · 0 分钟</title></rect><rect x="421" y="162" width="12" height="12" rx="2" fill="#EBEDF0"><title>2026-06-27 · 0 分钟</title></rect><rect x="436" y="72" width="12" height="12" rx="2" fill="#EBEDF0"><title>2026-06-28 · 0 分钟</title></rect><rect x="436" y="87" width="12" height="12" rx="2" fill="#EBEDF0"><title>2026-06-29 · 0 分钟</title></rect><rect x="436" y="102" width="12" height="12" rx="2" fill="#EBEDF0"><title>2026-06-30 · 0 分钟</title></rect><rect x="436" y="117" width="12" height="12" rx="2" fill="#EBEDF0"><title>2026-07-01 · 0 分钟</title></rect><rect x="436" y="132" width="12" height="12" rx="2" fill="#EBEDF0"><title>2026-07-02 · 0 分钟</title></rect><rect x="436" y="147" width="12" height="12" rx="2" fill="#EBEDF0"><title>2026-07-03 · 0 分钟</title></rect><rect x="436" y="162" width="12" height="12" rx="2" fill="#EBEDF0"><title>2026-07-04 · 0 分钟</title></rect><rect x="451" y="72" width="12" height="12" rx="2" fill="#EBEDF0"><title>2026-07-05 · 0 分钟</title></rect><rect x="451" y="87" width="12" height="12" rx="2" fill="#EBEDF0"><title>2026-07-06 · 0 分钟</title></rect><rect x="451" y="102" width="12" height="12" rx="2" fill="#EBEDF0"><title>2026-07-07 · 0 分钟</title></rect><rect x="451" y="117" width="12" height="12" rx="2" fill="#EBEDF0"><title>2026-07-08 · 0 分钟</title></rect><rect x="451" y="132" width="12" height="12" rx="2" fill="#EBEDF0"><title>2026-07-09 · 0 分钟</title></rect><rect x="451" y="147" width="12" height="12" rx="2" fill="#EBEDF0"><title>2026-07-10 · 0 分钟</title></rect><rect x="451" y="162" width="12" height="12" rx="2" fill="#EBEDF0"><title>2026-07-11 · 0 分钟</title></rect><rect x="466" y="72" width="12" height="12" rx="2" fill="#EBEDF0"><title>2026-07-12 · 0 分钟</title></rect><rect x="466" y="87" width="12" height="12" rx="2" fill="#EBEDF0"><title>2026-07-13 · 0 分钟</title></rect><rect x="466" y="102" width="12" height="12" rx="2" fill="#EBEDF0"><title>2026-07-14 · 0 分钟</title></rect><rect x="466" y="117" width="12" height="12" rx="2" fill="#EBEDF0"><title>2026-07-15 · 0 分钟</title></rect><rect x="466" y="132" width="12" height="12" rx="2" fill="#EBEDF0"><title>2026-07-16 · 0 分钟</title></rect><rect x="466" y="147" width="12" height="12" rx="2" fill="#EBEDF0"><title>2026-07-17 · 0 分钟</title></rect><rect x="466" y="162" width="12" height="12" rx="2" fill="#EBEDF0"><title>2026-07-18 · 0 分钟</title></rect><rect x="481" y="72" width="12" height="12" rx="2" fill="#EBEDF0"><title>2026-07-19 · 0 分钟</title></rect><rect x="481" y="87" width="12" height="12" rx="2" fill="#EBEDF0"><title>2026-07-20 · 0 分钟</title></rect><rect x="481" y="102" width="12" height="12" rx="2" fill="#EBEDF0"><title>2026-07-21 · 0 分钟</title></rect><rect x="481" y="117" width="12" height="12" rx="2" fill="#EBEDF0"><title>2026-07-22 · 0 分钟</title></rect><rect x="481" y="132" width="12" height="12" rx="2" fill="#EBEDF0"><title>2026-07-23 · 0 分钟</title></rect><rect x="481" y="147" width="12" height="12" rx="2" fill="#EBEDF0"><title>2026-07-24 · 0 分钟</title></rect><rect x="481" y="162" width="12" height="12" rx="2" fill="#EBEDF0"><title>2026-07-25 · 0 分钟</title></rect><rect x="496" y="72" width="12" height="12" rx="2" fill="#EBEDF0"><title>2026-07-26 · 0 分钟</title></rect><rect x="496" y="87" width="12" height="12" rx="2" fill="#EBEDF0"><title>2026-07-27 · 0 分钟</title></rect><rect x="496" y="102" width="12" height="12" rx="2" fill="#EBEDF0"><title>2026-07-28 · 0 分钟</title></rect><rect x="496" y="117" width="12" height="12" rx="2" fill="#EBEDF0"><title>2026-07-29 · 0 分钟</title></rect><rect x="496" y="132" width="12" height="12" rx="2" fill="#EBEDF0"><title>2026-07-30 · 0 分钟</title></rect><rect x="496" y="147" width="12" height="12" rx="2" fill="#EBEDF0"><title>2026-07-31 · 0 分钟</title></rect><rect x="496" y="162" width="12" height="12" rx="2" fill="#EBEDF0"><title>2026-08-01 · 0 分钟</title></rect><rect x="511" y="72" width="12" height="12" rx="2" fill="#EBEDF0"><title>2026-08-02 · 0 分钟</title></rect><rect x="511" y="87" width="12" height="12" rx="2" fill="#EBEDF0"><title>2026-08-03 · 0 分钟</title></rect><rect x="511" y="102" width="12" height="12" rx="2" fill="#EBEDF0"><title>2026-08-04 · 0 分钟</title></rect><rect x="511" y="117" width="12" height="12" rx="2" fill="#EBEDF0"><title>2026-08-05 · 0 分钟</title></rect><rect x="511" y="132" width="12" height="12" rx="2" fill="#EBEDF0"><title>2026-08-06 · 0 分钟</title></rect><rect x="511" y="147" width="12" height="12" rx="2" fill="#EBEDF0"><title>2026-08-07 · 0 分钟</title></rect><rect x="511" y="162" width="12" height="12" rx="2" fill="#EBEDF0"><title>2026-08-08 · 0 分钟</title></rect><rect x="526" y="72" width="12" height="12" rx="2" fill="#EBEDF0"><title>2026-08-09 · 0 分钟</title></rect><rect x="526" y="87" width="12" height="12" rx="2" fill="#EBEDF0"><title>2026-08-10 · 0 分钟</title></rect><rect x="526" y="102" width="12" height="12" rx="2" fill="#EBEDF0"><title>2026-08-11 · 0 分钟</title></rect><rect x="526" y="117" width="12" height="12" rx="2" fill="#EBEDF0"><title>2026-08-12 · 0 分钟</title></rect><rect x="526" y="132" width="12" height="12" rx="2" fill="#EBEDF0"><title>2026-08-13 · 0 分钟</title></rect><rect x="526" y="147" width="12" height="12" rx="2" fill="#EBEDF0"><title>2026-08-14 · 0 分钟</title></rect><rect x="526" y="162" width="12" height="12" rx="2" fill="#EBEDF0"><title>2026-08-15 · 0 分钟</title></rect><rect x="541" y="72" width="12" height="12" rx="2" fill="#EBEDF0"><title>2026-08-16 · 0 分钟</title></rect><rect x="541" y="87" width="12" height="12" rx="2" fill="#EBEDF0"><title>2026-08-17 · 0 分钟</title></rect><rect x="541" y="102" width="12" height="12" rx="2" fill="#EBEDF0"><title>2026-08-18 · 0 分钟</title></rect><rect x="541" y="117" width="12" height="12" rx="2" fill="#EBEDF0"><title>2026-08-19 · 0 分钟</title></rect><rect x="541" y="132" width="12" height="12" rx="2" fill="#EBEDF0"><title>2026-08-20 · 0 分钟</title></rect><rect x="541" y="147" width="12" height="12" rx="2" fill="#EBEDF0"><title>2026-08-21 · 0 分钟</title></rect><rect x="541" y="162" width="12" height="12" rx="2" fill="#EBEDF0"><title>2026-08-22 · 0 分钟</title></rect><rect x="556" y="72" width="12" height="12" rx="2" fill="#EBEDF0"><title>2026-08-23 · 0 分钟</title></rect><rect x="556" y="87" width="12" height="12" rx="2" fill="#EBEDF0"><title>2026-08-24 · 0 分钟</title></rect><rect x="556" y="102" width="12" height="12" rx="2" fill="#EBEDF0"><title>2026-08-25 · 0 分钟</title></rect><rect x="556" y="117" width="12" height="12" rx="2" fill="#EBEDF0"><title>2026-08-26 · 0 分钟</title></rect><rect x="556" y="132" width="12" height="12" rx="2" fill="#EBEDF0"><title>2026-08-27 · 0 分钟</title></rect><rect x="556" y="147" width="12" height="12" rx="2" fill="#EBEDF0"><title>2026-08-28 · 0 分钟</title></rect><rect x="556" y="162" width="12" height="12" rx="2" fill="#EBEDF0"><title>2026-08-29 · 0 分钟</title></rect><rect x="571" y="72" width="12" height="12" rx="2" fill="#EBEDF0"><title>2026-08-30 · 0 分钟</title></rect><rect x="571" y="87" width="12" height="12" rx="2" fill="#EBEDF0"><title>2026-08-31 · 0 分钟</title></rect><rect x="571" y="102" width="12" height="12" rx="2" fill="#EBEDF0"><title>2026-09-01 · 0 分钟</title></rect><rect x="571" y="117" width="12" height="12" rx="2" fill="#EBEDF0"><title>2026-09-02 · 0 分钟</title></rect><rect x="571" y="132" width="12" height="12" rx="2" fill="#EBEDF0"><title>2026-09-03 · 0 分钟</title></rect><rect x="571" y="147" width="12" height="12" rx="2" fill="#EBEDF0"><title>2026-09-04 · 0 分钟</title></rect><rect x="571" y="162" width="12" height="12" rx="2" fill="#EBEDF0"><title>2026-09-05 · 0 分钟</title></rect><rect x="586" y="72" width="12" height="12" rx="2" fill="#EBEDF0"><title>2026-09-06 · 0 分钟</title></rect><rect x="586" y="87" width="12" height="12" rx="2" fill="#EBEDF0"><title>2026-09-07 · 0 分钟</title></rect><rect x="586" y="102" width="12" height="12" rx="2" fill="#EBEDF0"><title>2026-09-08 · 0 分钟</title></rect><rect x="586" y="117" width="12" height="12" rx="2" fill="#EBEDF0"><title>2026-09-09 · 0 分钟</title></rect><rect x="586" y="132" width="12" height="12" rx="2" fill="#EBEDF0"><title>2026-09-10 · 0 分钟</title></rect><rect x="586" y="147" width="12" height="12" rx="2" fill="#EBEDF0"><title>2026-09-11 · 0 分钟</title></rect><rect x="586" y="162" width="12" height="12" rx="2" fill="#EBEDF0"><title>2026-09-12 · 0 分钟</title></rect><rect x="601" y="72" width="12" height="12" rx="2" fill="#EBEDF0"><title>2026-09-13 · 0 分钟</title></rect><rect x="601" y="87" width="12" height="12" rx="2" fill="#EBEDF0"><title>2026-09-14 · 0 分钟</title></rect><rect x="601" y="102" width="12" height="12" rx="2" fill="#EBEDF0"><title>2026-09-15 · 0 分钟</title></rect><rect x="601" y="117" width="12" height="12" rx="2" fill="#EBEDF0"><title>2026-09-16 · 0 分钟</title></rect><rect x="601" y="132" width="12" height="12" rx="2" fill="#EBEDF0"><title>2026-09-17 · 0 分钟</title></rect><rect x="601" y="147" width="12" height="12" rx="2" fill="#EBEDF0"><title>2026-09-18 · 0 分钟</title></rect><rect x="601" y="162" width="12" height="12" rx="2" fill="#EBEDF0"><title>2026-09-19 · 0 分钟</title></rect><rect x="616" y="72" width="12" height="12" rx="2" fill="#EBEDF0"><title>2026-09-20 · 0 分钟</title></rect><rect x="616" y="87" width="12" height="12" rx="2" fill="#EBEDF0"><title>2026-09-21 · 0 分钟</title></rect><rect x="616" y="102" width="12" height="12" rx="2" fill="#EBEDF0"><title>2026-09-22 · 0 分钟</title></rect><rect x="616" y="117" width="12" height="12" rx="2" fill="#EBEDF0"><title>2026-09-23 · 0 分钟</title></rect><rect x="616" y="132" width="12" height="12" rx="2" fill="#EBEDF0"><title>2026-09-24 · 0 分钟</title></rect><rect x="616" y="147" width="12" height="12" rx="2" fill="#EBEDF0"><title>2026-09-25 · 0 分钟</title></rect><rect x="616" y="162" width="12" height="12" rx="2" fill="#EBEDF0"><title>2026-09-26 · 0 分钟</title></rect><rect x="631" y="72" width="12" height="12" rx="2" fill="#EBEDF0"><title>2026-09-27 · 0 分钟</title></rect><rect x="631" y="87" width="12" height="12" rx="2" fill="#EBEDF0"><title>2026-09-28 · 0 分钟</title></rect><rect x="631" y="102" width="12" height="12" rx="2" fill="#EBEDF0"><title>2026-09-29 · 0 分钟</title></rect><rect x="631" y="117" width="12" height="12" rx="2" fill="#EBEDF0"><title>2026-09-30 · 0 分钟</title></rect><rect x="631" y="132" width="12" height="12" rx="2" fill="#EBEDF0"><title>2026-10-01 · 0 分钟</title></rect><rect x="631" y="147" width="12" height="12" rx="2" fill="#EBEDF0"><title>2026-10-02 · 0 分钟</title></rect><rect x="631" y="162" width="12" height="12" rx="2" fill="#EBEDF0"><title>2026-10-03 · 0 分钟</title></rect><rect x="646" y="72" width="12" height="12" rx="2" fill="#EBEDF0"><title>2026-10-04 · 0 分钟</title></rect><rect x="646" y="87" width="12" height="12" rx="2" fill="#EBEDF0"><title>2026-10-05 · 0 分钟</title></rect><rect x="646" y="102" width="12" height="12" rx="2" fill="#EBEDF0"><title>2026-10-06 · 0 分钟</title></rect><rect x="646" y="117" width="12" height="12" rx="2" fill="#EBEDF0"><title>2026-10-07 · 0 分钟</title></rect><rect x="646" y="132" width="12" height="12" rx="2" fill="#EBEDF0"><title>2026-10-08 · 0 分钟</title></rect><rect x="646" y="147" width="12" height="12" rx="2" fill="#EBEDF0"><title>2026-10-09 · 0 分钟</title></rect><rect x="646" y="162" width="12" height="12" rx="2" fill="#EBEDF0"><title>2026-10-10 · 0 分钟</title></rect><rect x="661" y="72" width="12" height="12" rx="2" fill="#EBEDF0"><title>2026-10-11 · 0 分钟</title></rect><rect x="661" y="87" width="12" height="12" rx="2" fill="#EBEDF0"><title>2026-10-12 · 0 分钟</title></rect><rect x="661" y="102" width="12" height="12" rx="2" fill="#EBEDF0"><title>2026-10-13 · 0 分钟</title></rect><rect x="661" y="117" width="12" height="12" rx="2" fill="#EBEDF0"><title>2026-10-14 · 0 分钟</title></rect><rect x="661" y="132" width="12" height="12" rx="2" fill="#EBEDF0"><title>2026-10-15 · 0 分钟</title></rect><rect x="661" y="147" width="12" height="12" rx="2" fill="#EBEDF0"><title>2026-10-16 · 0 分钟</title></rect><rect x="661" y="162" width="12" height="12" rx="2" fill="#EBEDF0"><title>2026-10-17 · 0 分钟</title></rect><rect x="676" y="72" width="12" height="12" rx="2" fill="#EBEDF0"><title>2026-10-18 · 0 分钟</title></rect><rect x="676" y="87" width="12" height="12" rx="2" fill="#EBEDF0"><title>2026-10-19 · 0 分钟</title></rect><rect x="676" y="102" width="12" height="12" rx="2" fill="#EBEDF0"><title>2026-10-20 · 0 分钟</title></rect><rect x="676" y="117" width="12" height="12" rx="2" fill="#EBEDF0"><title>2026-10-21 · 0 分钟</title></rect><rect x="676" y="132" width="12" height="12" rx="2" fill="#EBEDF0"><title>2026-10-22 · 0 分钟</title></rect><rect x="676" y="147" width="12" height="12" rx="2" fill="#EBEDF0"><title>2026-10-23 · 0 分钟</title></rect><rect x="676" y="162" width="12" height="12" rx="2" fill="#EBEDF0"><title>2026-10-24 · 0 分钟</title></rect><rect x="691" y="72" width="12" height="12" rx="2" fill="#EBEDF0"><title>2026-10-25 · 0 分钟</title></rect><rect x="691" y="87" width="12" height="12" rx="2" fill="#EBEDF0"><title>2026-10-26 · 0 分钟</title></rect><rect x="691" y="102" width="12" height="12" rx="2" fill="#EBEDF0"><title>2026-10-27 · 0 分钟</title></rect><rect x="691" y="117" width="12" height="12" rx="2" fill="#EBEDF0"><title>2026-10-28 · 0 分钟</title></rect><rect x="691" y="132" width="12" height="12" rx="2" fill="#EBEDF0"><title>2026-10-29 · 0 分钟</title></rect><rect x="691" y="147" width="12" height="12" rx="2" fill="#EBEDF0"><title>2026-10-30 · 0 分钟</title></rect><rect x="691" y="162" width="12" height="12" rx="2" fill="#EBEDF0"><title>2026-10-31 · 0 分钟</title></rect><rect x="706" y="72" width="12" height="12" rx="2" fill="#EBEDF0"><title>2026-11-01 · 0 分钟</title></rect><rect x="706" y="87" width="12" height="12" rx="2" fill="#EBEDF0"><title>2026-11-02 · 0 分钟</title></rect><rect x="706" y="102" width="12" height="12" rx="2" fill="#EBEDF0"><title>2026-11-03 · 0 分钟</title></rect><rect x="706" y="117" width="12" height="12" rx="2" fill="#EBEDF0"><title>2026-11-04 · 0 分钟</title></rect><rect x="706" y="132" width="12" height="12" rx="2" fill="#EBEDF0"><title>2026-11-05 · 0 分钟</title></rect><rect x="706" y="147" width="12" height="12" rx="2" fill="#EBEDF0"><title>2026-11-06 · 0 分钟</title></rect><rect x="706" y="162" width="12" height="12" rx="2" fill="#EBEDF0"><title>2026-11-07 · 0 分钟</title></rect><rect x="721" y="72" width="12" height="12" rx="2" fill="#EBEDF0"><title>2026-11-08 · 0 分钟</title></rect><rect x="721" y="87" width="12" height="12" rx="2" fill="#EBEDF0"><title>2026-11-09 · 0 分钟</title></rect><rect x="721" y="102" width="12" height="12" rx="2" fill="#EBEDF0"><title>2026-11-10 · 0 分钟</title></rect><rect x="721" y="117" width="12" height="12" rx="2" fill="#EBEDF0"><title>2026-11-11 · 0 分钟</title></rect><rect x="721" y="132" width="12" height="12" rx="2" fill="#EBEDF0"><title>2026-11-12 · 0 分钟</title></rect><rect x="721" y="147" width="12" height="12" rx="2" fill="#EBEDF0"><title>2026-11-13 · 0 分钟</title></rect><rect x="721" y="162" width="12" height="12" rx="2" fill="#EBEDF0"><title>2026-11-14 · 0 分钟</title></rect><rect x="736" y="72" width="12" height="12" rx="2" fill="#EBEDF0"><title>2026-11-15 · 0 分钟</title></rect><rect x="736" y="87" width="12" height="12" rx="2" fill="#EBEDF0"><title>2026-11-16 · 0 分钟</title></rect><rect x="736" y="102" width="12" height="12" rx="2" fill="#EBEDF0"><title>2026-11-17 · 0 分钟</title></rect><rect x="736" y="117" width="12" height="12" rx="2" fill="#EBEDF0"><title>2026-11-18 · 0 分钟</title></rect><rect x="736" y="132" width="12" height="12" rx="2" fill="#EBEDF0"><title>2026-11-19 · 0 分钟</title></rect><rect x="736" y="147" width="12" height="12" rx="2" fill="#EBEDF0"><title>2026-11-20 · 0 分钟</title></rect><rect x="736" y="162" width="12" height="12" rx="2" fill="#EBEDF0"><title>2026-11-21 · 0 分钟</title></rect><rect x="751" y="72" width="12" height="12" rx="2" fill="#EBEDF0"><title>2026-11-22 · 0 分钟</title></rect><rect x="751" y="87" width="12" height="12" rx="2" fill="#EBEDF0"><title>2026-11-23 · 0 分钟</title></rect><rect x="751" y="102" width="12" height="12" rx="2" fill="#EBEDF0"><title>2026-11-24 · 0 分钟</title></rect><rect x="751" y="117" width="12" height="12" rx="2" fill="#EBEDF0"><title>2026-11-25 · 0 分钟</title></rect><rect x="751" y="132" width="12" height="12" rx="2" fill="#EBEDF0"><title>2026-11-26 · 0 分钟</title></rect><rect x="751" y="147" width="12" height="12" rx="2" fill="#EBEDF0"><title>2026-11-27 · 0 分钟</title></rect><rect x="751" y="162" width="12" height="12" rx="2" fill="#EBEDF0"><title>2026-11-28 · 0 分钟</title></rect><rect x="766" y="72" width="12" height="12" rx="2" fill="#EBEDF0"><title>2026-11-29 · 0 分钟</title></rect><rect x="766" y="87" width="12" height="12" rx="2" fill="#EBEDF0"><title>2026-11-30 · 0 分钟</title></rect><rect x="766" y="102" width="12" height="12" rx="2" fill="#EBEDF0"><title>2026-12-01 · 0 分钟</title></rect><rect x="766" y="117" width="12" height="12" rx="2" fill="#EBEDF0"><title>2026-12-02 · 0 分钟</title></rect><rect x="766" y="132" width="12" height="12" rx="2" fill="#EBEDF0"><title>2026-12-03 · 0 分钟</title></rect><rect x="766" y="147" width="12" height="12" rx="2" fill="#EBEDF0"><title>2026-12-04 · 0 分钟</title></rect><rect x="766" y="162" width="12" height="12" rx="2" fill="#EBEDF0"><title>2026-12-05 · 0 分钟</title></rect><rect x="781" y="72" width="12" height="12" rx="2" fill="#EBEDF0"><title>2026-12-06 · 0 分钟</title></rect><rect x="781" y="87" width="12" height="12" rx="2" fill="#EBEDF0"><title>2026-12-07 · 0 分钟</title></rect><rect x="781" y="102" width="12" height="12" rx="2" fill="#EBEDF0"><title>2026-12-08 · 0 分钟</title></rect><rect x="781" y="117" width="12" height="12" rx="2" fill="#EBEDF0"><title>2026-12-09 · 0 分钟</title></rect><rect x="781" y="132" width="12" height="12" rx="2" fill="#EBEDF0"><title>2026-12-10 · 0 分钟</title></rect><rect x="781" y="147" width="12" height="12" rx="2" fill="#EBEDF0"><title>2026-12-11 · 0 分钟</title></rect><rect x="781" y="162" width="12" height="12" rx="2" fill="#EBEDF0"><title>2026-12-12 · 0 分钟</title></rect><rect x="796" y="72" width="12" height="12" rx="2" fill="#EBEDF0"><title>2026-12-13 · 0 分钟</title></rect><rect x="796" y="87" width="12" height="12" rx="2" fill="#EBEDF0"><title>2026-12-14 · 0 分钟</title></rect><rect x="796" y="102" width="12" height="12" rx="2" fill="#EBEDF0"><title>2026-12-15 · 0 分钟</title></rect><rect x="796" y="117" width="12" height="12" rx="2" fill="#EBEDF0"><title>2026-12-16 · 0 分钟</title></rect><rect x="796" y="132" width="12" height="12" rx="2" fill="#EBEDF0"><title>2026-12-17 · 0 分钟</title></rect><rect x="796" y="147" width="12" height="12" rx="2" fill="#EBEDF0"><title>2026-12-18 · 0 分钟</title></rect><rect x="796" y="162" width="12" height="12" rx="2" fill="#EBEDF0"><title>2026-12-19 · 0 分钟</title></rect><rect x="811" y="72" width="12" height="12" rx="2" fill="#EBEDF0"><title>2026-12-20 · 0 分钟</title></rect><rect x="811" y="87" width="12" height="12" rx="2" fill="#EBEDF0"><title>2026-12-21 · 0 分钟</title></rect><rect x="811" y="102" width="12" height="12" rx="2" fill="#EBEDF0"><title>2026-12-22 · 0 分钟</title></rect><rect x="811" y="117" width="12" height="12" rx="2" fill="#EBEDF0"><title>2026-12-23 · 0 分钟</title></rect><rect x="811" y="132" width="12" height="12" rx="2" fill="#EBEDF0"><title>2026-12-24 · 0 分钟</title></rect><rect x="811" y="147" width="12" height="12" rx="2" fill="#EBEDF0"><title>2026-12-25 · 0 分钟</title></rect><rect x="811" y="162" width="12" height="12" rx="2" fill="#EBEDF0"><title>2026-12-26 · 0 分钟</title></rect><rect x="826" y="72" width="12" height="12" rx="2" fill="#EBEDF0"><title>2026-12-27 · 0 分钟</title></rect><rect x="826" y="87" width="12" height="12" rx="2" fill="#EBEDF0"><title>2026-12-28 · 0 分钟</title></rect><rect x="826" y="102" width="12" height="12" rx="2" fill="#EBEDF0"><title>2026-12-29 · 0 分钟</title></rect><rect x="826" y="117" width="12" height="12" rx="2" fill="#EBEDF0"><title>2026-12-30 · 0 分钟</title></rect><rect x="826" y="132" width="12" height="12" rx="2" fill="#EBEDF0"><title>2026-12-31 · 0 分钟</title></rect></g>
<g fill="#24292F" font-family="-apple-system,BlinkMacSystemFont,'Segoe UI','Noto Sans SC',sans-serif" font-size="10" opacity="0.72"><text x="695" y="199">少</text><rect x="719" y="189" width="12" height="12" rx="2" fill="#EBEDF0"/><rect x="736" y="189" width="12" height="12" rx="2" fill="#ACE7AE"/><rect x="753" y="189" width="12" height="12" rx="2" fill="#69C16E"/><rect x="770" y="189" width="12" height="12" rx="2" fill="#549F57"/><text x="792" y="199">多</text></g>
</svg>
